<?xml version="1.0" encoding="UTF-8" standalone="no"?>
<!-- Created with Inkscape (http://www.inkscape.org/) -->

<svg
   width="256mm"
   height="256mm"
   viewBox="0 0 256 256"
   version="1.1"
   id="svg1"
   inkscape:version="1.4 (86a8ad7, 2024-10-11)"
   sodipodi:docname="bee_v1.svg"
   xmlns:inkscape="http://www.inkscape.org/namespaces/inkscape"
   xmlns:sodipodi="http://sodipodi.sourceforge.net/DTD/sodipodi-0.dtd"
   xmlns="http://www.w3.org/2000/svg"
   xmlns:svg="http://www.w3.org/2000/svg">
  <sodipodi:namedview
     id="namedview1"
     pagecolor="#505050"
     bordercolor="#eeeeee"
     borderopacity="1"
     inkscape:showpageshadow="0"
     inkscape:pageopacity="0"
     inkscape:pagecheckerboard="0"
     inkscape:deskcolor="#505050"
     inkscape:document-units="mm"
     showgrid="false"
     inkscape:zoom="0.71891835"
     inkscape:cx="396.42889"
     inkscape:cy="561.25984"
     inkscape:window-width="1920"
     inkscape:window-height="1009"
     inkscape:window-x="-8"
     inkscape:window-y="-4"
     inkscape:window-maximized="1"
     inkscape:current-layer="layer1">
    <inkscape:grid
       id="grid1"
       units="mm"
       originx="0"
       originy="0"
       spacingx="0.99999997"
       spacingy="0.99999997"
       empcolor="#0099e5"
       empopacity="0.30196078"
       color="#0099e5"
       opacity="0.14901961"
       empspacing="5"
       enabled="true"
       visible="false" />
  </sodipodi:namedview>
  <defs
     id="defs1">
    <linearGradient
       id="swatch26"
       inkscape:swatch="solid">
      <stop
         style="stop-color:#000000;stop-opacity:0;"
         offset="0"
         id="stop26" />
    </linearGradient>
  </defs>
  <g
     inkscape:label="Lager 1"
     inkscape:groupmode="layer"
     id="layer1">
    <path
       id="path1"
       style="fill:#ffff00;fill-opacity:1;stroke:#000000;stroke-width:0.2622;stroke-opacity:1"
       d="m 125.13035,143.16232 a 36.068104,41.404537 0 0 0 -15.11743,3.82561 c 0.0645,0.0228 0.12715,0.0424 0.19327,0.0687 1.09998,0.43854 2.13126,1.02366 3.21014,1.50843 1.14893,0.56731 2.30071,1.11947 3.49075,1.59629 1.15292,0.48057 2.37916,0.6923 3.61115,0.84181 1.38623,0.14319 2.78059,0.17764 4.17287,0.21084 1.35085,0.0202 2.69931,0.01 4.04626,0.12247 1.12008,0.11825 2.24522,0.17564 3.37034,0.21704 0.34237,0.007 0.68606,0.0172 1.02939,0.0264 -0.29187,-0.88851 0.30214,-2.05698 2.06706,-2.58279 0.72449,-0.21584 0.34143,-0.0894 1.14773,-0.38861 0.66146,-0.26303 1.318,-0.53687 1.97921,-0.80047 0.17958,-0.0716 0.40412,-0.35091 0.5395,-0.2129 2.56938,2.61923 2.99917,2.11601 2.0314,3.07371 -0.37379,0.34626 -0.78435,0.65496 -1.06091,1.09089 -0.42516,0.52116 -0.70146,1.14098 -1.11621,1.6707 -0.81209,0.92774 -1.80048,1.52062 -3.04065,1.68465 -1.23189,0.18345 -2.4699,0.18055 -3.71243,0.11575 -1.1836,-0.044 -2.36714,-0.10391 -3.54552,-0.22737 -1.27225,-0.10965 -2.54753,-0.0841 -3.82354,-0.11059 -1.51325,-0.0363 -3.02846,-0.0758 -4.53461,-0.23719 -1.54759,-0.19306 -3.08514,-0.47734 -4.53357,-1.07901 -1.23652,-0.49823 -2.43973,-1.06225 -3.63234,-1.65674 -1.00487,-0.45518 -1.97264,-0.9865 -2.98844,-1.41749 v 5.2e-4 c -1.02813,-0.43622 -1.61756,-1.0556 -1.85002,-1.66605 a 36.068104,41.404537 0 0 0 -18.001486,35.73012 36.068104,41.404537 0 0 0 36.068086,41.40419 36.068104,41.404537 0 0 0 36.06808,-41.40419 36.068104,41.404537 0 0 0 -36.06808,-41.40471 z" />
    <path
       id="path1-8"
       style="fill:#ffff00;fill-opacity:1;stroke:#000000;stroke-width:0.170275;stroke-opacity:1"
       d="m 125.18822,105.96614 a 26.479151,23.785074 0 0 0 -12.58321,2.92592 c 0.14123,-0.006 0.28087,-0.01 0.41703,-0.0103 1.23003,0.0805 2.3645,0.50676 3.44114,1.08003 0.92282,0.49081 1.45817,0.9511 1.8681,1.73478 0.2559,-0.31168 0.52154,-0.61563 0.79892,-0.9095 0.31369,-0.33234 0.61386,-0.68775 0.98753,-0.95085 0.41052,-0.28904 0.89337,-0.45895 1.33997,-0.68833 0.80444,0.46261 1.78346,0.70653 2.41329,1.38803 0.28285,0.30602 0.0715,0.83552 0.0243,1.24953 -0.0262,0.22992 -0.10301,0.48478 -0.20981,0.75035 0.25676,0.10214 0.4501,0.14587 0.9679,0.29249 0.75622,0.15753 1.52859,0.18319 2.29805,0.16019 0.002,-1e-4 0.76043,-0.052 0.82373,-0.045 0.28087,0.0318 0.5564,0.10028 0.83457,0.15038 0.15171,0.0413 0.30523,0.075 0.4594,0.10491 0.5281,-0.0703 1.05575,-0.14368 1.58182,-0.22686 0.8792,-0.15227 1.79757,-0.27849 2.56005,-0.7705 0.7548,-0.48287 1.42939,-1.07114 2.15387,-1.59473 0.36348,-0.26943 0.71753,-0.54991 1.07642,-0.82528 0.61027,-0.46826 1.1908,-0.70452 1.70119,-0.76843 a 26.479151,23.785074 0 0 0 -12.95425,-3.04684 z m 14.76344,4.04833 c 0.2411,0.74606 -0.0772,1.78153 -1.2764,2.69183 -0.39108,0.29687 -0.77339,0.6041 -1.16944,0.89452 -0.74757,0.52538 -1.43356,1.1375 -2.20452,1.63194 -0.13936,0.16368 -0.36923,0.31817 -0.62683,0.46767 0.89569,0.91977 0.43306,2.62693 -1.85312,3.12694 -0.21469,0.047 -0.42919,0.0936 -0.64389,0.14056 -1.46077,0.19656 -2.9142,0.15491 -4.37958,0 -1.55999,-0.1366 -3.11411,-0.32568 -4.67206,-0.48214 -0.91927,-0.13784 -1.82553,-0.32118 -2.71663,-0.56637 -0.11069,0.15592 -0.21719,0.3149 -0.33073,0.4687 -2.01048,2.72333 -4.52573,0.91554 -3.18585,-1.73891 -0.69701,-0.28622 -1.39261,-0.5759 -2.09755,-0.84388 -0.0508,-0.0171 -0.0337,-0.0114 -0.0749,-0.0253 -0.0168,0.38419 -0.0728,0.71903 -0.15813,1.00614 0.45665,2.26211 -1.9425,3.30723 -3.6034,0.709 -0.61566,-0.96311 -1.07691,-2.02137 -1.5012,-3.08043 -0.17159,-0.74354 -0.63653,-1.71128 -0.59273,-2.49545 0.0172,-0.30889 0.0846,-0.61281 0.1354,-0.91829 a 26.479151,23.785074 0 0 0 -10.29085,18.75027 26.479151,23.785074 0 0 0 8.63048,17.51883 c 0.31438,-0.32543 0.80354,-0.53438 1.44487,-0.52555 0.41565,0.006 0.89283,0.10131 1.42162,0.31213 1.09998,0.43854 2.13126,1.02366 3.21014,1.50843 1.14893,0.56731 2.30071,1.11947 3.49075,1.59629 1.15292,0.48057 2.37916,0.6923 3.61115,0.84181 1.38623,0.14319 2.78059,0.17764 4.17287,0.21084 1.35085,0.0202 2.69931,0.01 4.04626,0.12247 1.12008,0.11825 2.24522,0.17564 3.37034,0.21704 0.34237,0.007 0.68606,0.0172 1.02939,0.0264 -0.29187,-0.88851 0.30214,-2.05698 2.06706,-2.58279 0.72449,-0.21584 0.34143,-0.0894 1.14773,-0.38861 0.66146,-0.26303 1.318,-0.53687 1.97921,-0.80047 0.17958,-0.0716 0.40412,-0.35091 0.5395,-0.2129 0.71617,0.73006 1.25025,1.20305 1.65003,1.54719 a 26.479151,23.785074 0 0 0 11.14661,-19.39107 26.479151,23.785074 0 0 0 -11.71557,-19.73678 z" />
    <path
       id="path1-5"
       style="fill:#ffff00;fill-opacity:1;stroke:#000000;stroke-width:0.180594;stroke-opacity:1"
       d="m 124.03894,58.018164 a 24.331957,29.116343 0 0 0 -24.331848,29.116052 24.331957,29.116343 0 0 0 9.693468,23.122624 c 0.0609,-0.0933 0.12542,-0.18416 0.2005,-0.26665 0.84716,-0.93066 2.25071,-1.10246 3.42098,-1.10846 1.23003,0.0805 2.3645,0.50676 3.44114,1.08003 0.92282,0.49081 1.45817,0.9511 1.8681,1.73478 0.25589,-0.31167 0.52155,-0.61564 0.79892,-0.9095 0.31369,-0.33234 0.61386,-0.68775 0.98753,-0.95085 0.41052,-0.28904 0.89337,-0.45895 1.33997,-0.68833 0.80444,0.46261 1.78346,0.70653 2.41329,1.38803 0.28285,0.30602 0.0715,0.83552 0.0243,1.24953 -0.0262,0.22992 -0.10301,0.48478 -0.20981,0.75035 0.25676,0.10214 0.4501,0.14587 0.9679,0.29249 0.75622,0.15753 1.52859,0.18319 2.29805,0.16019 0.002,-1e-4 0.76043,-0.052 0.82373,-0.045 0.28087,0.0318 0.5564,0.10028 0.83457,0.15038 0.15171,0.0413 0.30523,0.075 0.4594,0.10491 0.5281,-0.0703 1.05575,-0.14368 1.58182,-0.22686 0.8792,-0.15227 1.79757,-0.27849 2.56005,-0.7705 0.7548,-0.48287 1.42939,-1.07114 2.15387,-1.59473 0.36348,-0.26943 0.71753,-0.54991 1.07642,-0.82528 1.35377,-1.03875 2.56626,-0.94606 3.17449,-0.32763 a 24.331957,29.116343 0 0 0 8.75502,-22.319564 24.331957,29.116343 0 0 0 -24.33185,-29.116052 z" />
    <path
       style="fill:#ffff00;fill-opacity:1;stroke:#000000;stroke-width:0.264583;stroke-opacity:0"
       d="m 124.02602,104.88848 c -1.40961,-0.026 -8.65806,0.19337 -9.56877,1.10408 -0.0867,0.0868 0.0549,0.25831 0,0.36803 -0.76583,1.53166 0.0254,-0.39343 -0.73606,0.36803 -0.19397,0.19397 -0.17406,0.54209 -0.36803,0.73606 -0.39638,0.39638 -0.90428,0.53625 -1.10409,0.73606 -0.12268,0.12268 -0.24535,0.98142 -0.36803,1.10409 -0.0843,0.0843 -1.31002,0.28698 -1.47212,0.36803 -0.17031,0.0852 -1.0584,2.89855 -1.10409,2.94424 -0.0867,0.0867 -0.28128,-0.0867 -0.36803,0 -0.1408,0.1408 0,1.71107 0,1.84015 0,0.77084 -0.35297,2.60633 0,3.31226 0.75129,1.50259 0.72712,1.09515 1.84015,2.20818 0.93728,0.93728 1.68428,2.68229 2.94424,3.31227 0.79843,0.39922 2.96058,1.7052 3.6803,1.84015 4.25547,0.7979 9.69496,0.98091 13.98513,0.36803 0.77184,-0.11026 3.87345,-0.37169 4.78438,-0.73606 0.90242,-0.36097 2.59732,-1.49323 3.31227,-2.20818 0.62118,-0.62118 0.46209,-1.29221 0.73606,-1.84015 0.15517,-0.31035 0.58088,-0.42571 0.73606,-0.73606 0.2262,-0.45241 0.14183,-1.01971 0.36803,-1.47212 0.0549,-0.10972 0.31316,0.10973 0.36803,0 0.26199,-0.52398 0.21475,-3.77209 0,-4.41635 -0.0549,-0.16459 -0.29045,-0.21286 -0.36803,-0.36803 -0.11111,-0.22221 0.17013,-0.93397 0,-1.10409 -0.0867,-0.0867 -0.25831,0.0549 -0.36803,0 -0.60996,-0.30498 -0.68698,-1.05502 -1.10409,-1.47212 -0.19397,-0.19397 -0.5839,-0.13979 -0.73606,-0.36803 -0.1361,-0.20414 0.10973,-0.51661 0,-0.73606 -0.0549,-0.10973 -0.28128,0.0867 -0.36803,0 -0.14843,-0.14843 -0.1679,-1.80792 -0.36803,-2.20818 -0.27431,-0.54862 -0.91012,-0.89021 -1.10409,-1.47212 -0.0776,-0.23276 0.10973,-0.51661 0,-0.73606 -0.10972,-0.21945 -0.51661,0.10973 -0.73606,0 -1.17532,-0.58766 -2.35255,-0.10247 -3.6803,-0.36803 -0.87965,-0.17593 -1.46026,-0.91711 -2.20817,-1.10408 -0.73712,-0.18428 -1.78779,0 -2.57621,0"
       id="path32" />
    <path
       style="fill:#ffff00;fill-opacity:1;stroke:#000000;stroke-width:0.264583;stroke-opacity:0"
       d="m 111.14498,104.15242 c 0,0.4907 -0.49071,1.47211 0,1.47211 0.49071,0 0,-1.96282 0,-1.47211 0,3.31968 0.0521,3.20806 -1.10409,5.52044 -0.11152,0.22305 -0.21381,0.94987 -0.36803,1.10409 -0.0867,0.0867 -0.28128,-0.0867 -0.36803,0 -0.0867,0.0867 0.0868,0.28128 0,0.36803 -0.0867,0.0867 -0.28128,-0.0868 -0.36803,0 -0.0867,0.0867 0.0867,0.28128 0,0.36803 -0.0867,0.0868 -0.28128,-0.0867 -0.36803,0 -0.28263,0.28263 -0.36803,0.84581 -0.36803,1.47212 0,1.47212 0.12268,-0.61338 -0.36803,0.36803 -0.25193,0.50387 -0.18269,2.7642 0,3.31227 1.04495,3.13485 7.15266,2.94423 9.56878,2.94423 1.80036,0 3.73003,-0.17904 5.52044,0 3.49401,0.34941 6.7939,0.50157 10.30483,0 0.24289,-0.0347 0.51661,0.10973 0.73606,0 0.1624,-0.0812 0.25153,-0.75457 0.36803,-1.10409 0.38292,-1.14873 0.24536,0.12268 0.73606,-0.36803 0.26443,-0.26443 0.44329,-1.54738 0.73606,-1.84014 0.19397,-0.19397 0.5839,-0.13979 0.73606,-0.36803 0.1361,-0.20415 -0.17349,-0.56257 0,-0.73606 0.17349,-0.17349 0.5033,0.0776 0.73606,0 0.32918,-0.10973 0.42571,-0.58089 0.73606,-0.73606 0.10972,-0.0549 0.28129,0.0867 0.36803,0 0.12268,-0.12268 0.24535,-0.98142 0.36803,-1.10409 0.18401,-0.18402 0.55205,-0.18402 0.73606,-0.36803 0.0383,-0.0383 0.22839,-2.66495 0.36803,-2.94424 0.26837,-0.53674 0.58875,-0.58875 0.73606,-0.73606 0.741,-0.741 -1.24077,-2.19062 -1.47212,-2.57621 -0.19959,-0.33265 -0.13527,-0.79374 -0.36803,-1.10409 -0.67238,-0.89651 -0.68051,0.11111 -1.10409,-0.73605 -0.37242,-0.74485 -0.43564,-0.43564 -1.10409,-1.10409 -0.19397,-0.19397 -0.13979,-0.5839 -0.36803,-0.73606 -1.10409,-0.73606 -0.36803,0.36803 -1.10409,0 -1.74382,-0.87192 2.48652,0.21545 -1.47212,-1.10409 -0.34914,-0.11638 -0.73976,0.052 -1.10408,0 -0.50073,-0.0715 -0.97022,-0.30529 -1.47212,-0.36803 -1.66077,-0.2076 -3.18064,0.18983 -4.78439,0.36803 -0.9871,0.10968 -2.30074,-0.20231 -3.31227,0 -1.12866,0.22573 -2.18361,0.51032 -3.31227,0.73606 -0.0329,0.007 -1.36835,-0.10377 -1.47212,0 -0.0867,0.0867 0.0867,0.28128 0,0.36803 -0.0867,0.0867 -0.28128,-0.0868 -0.36803,0 -0.0867,0.0867 0.0868,0.28128 0,0.36803 -0.0974,0.0974 -0.95254,0 -1.10408,0"
       id="path33" />
    <path
       style="fill:#ffff00;fill-opacity:1;stroke:#000000;stroke-width:0.264583;stroke-opacity:0"
       d="m 114.08922,138.74721 c -0.88278,1.54363 -1.87788,4.25121 -3.6803,5.15242 -0.10973,0.0549 -0.28128,-0.0867 -0.36803,0 -0.0867,0.0867 0.10972,0.31316 0,0.36803 -0.21945,0.10972 -0.51661,-0.10973 -0.73606,0 -0.21945,0.10972 0.17349,0.56256 0,0.73606 -0.0867,0.0867 -0.28128,-0.0867 -0.36803,0 -0.47235,0.47234 -0.26371,1.73583 -0.73606,2.20817 -0.18401,0.18402 -0.92007,-0.18401 -1.10409,0 -0.26023,0.26024 0,2.16742 0,2.57621 0,2.40013 -0.13987,6.3198 2.20818,7.72863 0.33265,0.19959 0.77144,0.16843 1.10409,0.36803 0.59507,0.35704 0.87705,1.11507 1.47212,1.47212 1.45039,0.87023 10.22907,0.79956 12.51301,1.10409 3.08568,0.41142 7.52225,1.11899 10.30483,-0.73606 0.28871,-0.19248 0.42571,-0.58089 0.73606,-0.73606 0.494,-0.247 1.31095,0.1764 1.84015,0 2.66579,-0.8886 -0.58024,0.1061 1.10409,-0.73606 0.10973,-0.0549 0.28128,0.0867 0.36803,0 0.44825,-0.44826 0.17239,-0.82226 0.73606,-1.10409 0.10973,-0.0549 0.28128,0.0867 0.36803,0 0.0867,-0.0867 -0.10973,-0.31317 0,-0.36803 0.21945,-0.10973 0.51661,0.10972 0.73606,0 0.1275,-0.0637 0.23106,-1.33515 0.36803,-1.47212 0.0867,-0.0867 0.2583,0.0549 0.36803,0 0.58416,-0.29208 0.86122,-1.22925 1.10409,-1.47212 0.0867,-0.0867 0.28128,0.0867 0.36803,0 0.15496,-0.15496 0.0502,-2.89401 0,-2.94424 -0.0867,-0.0867 -0.28129,0.0867 -0.36803,0 -0.24535,-0.24535 0.24535,-1.22676 0,-1.47212 -0.18402,-0.18401 -0.55205,-0.18401 -0.73606,-0.36803 -0.17349,-0.17349 0.10972,-0.51661 0,-0.73606 -0.15518,-0.31035 -0.62634,-0.40688 -0.73606,-0.73606 -0.0776,-0.23276 0.0776,-0.50329 0,-0.73606 -0.10973,-0.32917 -0.58089,-0.4257 -0.73606,-0.73606 -0.16459,-0.32917 0.11638,-0.75494 0,-1.10408 -0.0549,-0.16459 -0.32595,-0.19972 -0.36803,-0.36803 -0.22653,-0.9061 -0.0731,-2.05936 -0.36803,-2.94424 -0.13987,-0.41962 -0.59619,-0.68447 -0.73606,-1.10409 -0.0776,-0.23276 0.10973,-0.51661 0,-0.73606 -0.0549,-0.10973 -0.28128,0.0867 -0.36803,0 -0.0867,-0.0867 0.0549,-0.2583 0,-0.36803 -0.22082,-0.44164 -0.88327,-0.66245 -1.10409,-1.10409 -0.10972,-0.21945 0.1361,-0.53191 0,-0.73606 -0.40538,-0.60808 -1.99114,-0.38502 -2.57621,-0.73606 -0.29753,-0.17852 -0.41713,-0.59937 -0.73606,-0.73606 -1.59347,-0.68291 -3.49891,-0.49984 -5.15241,-0.73606 -0.43313,-0.0619 -2.7977,-0.8826 -3.31227,-0.36803 -0.0867,0.0867 0.11638,0.32924 0,0.36803 -0.34914,0.11638 -0.74107,-0.0605 -1.10409,0 -3.23063,0.53844 0.56257,0.13538 -1.84015,0.73606 -0.23803,0.0595 -0.51661,-0.10972 -0.73606,0 -0.10972,0.0549 0.0867,0.28129 0,0.36803 -0.2685,0.26851 -1.38906,0 -1.84015,0"
       id="path34" />
    <path
       style="fill:#1a1a1a;fill-opacity:1;stroke:#000000;stroke-width:0.264583;stroke-opacity:0"
       d="m 89.431227,191.37546 c 1.472117,1.84015 3.312265,10.67286 3.312265,10.67286 l 30.914498,4.04833 34.22677,-5.88847 2.94423,-8.83272 -36.43494,6.25651 -30.914497,-4.41636"
       id="path35" />
    <path
       style="fill:#1a1a1a;fill-opacity:1;stroke:#000000;stroke-width:0.264583;stroke-opacity:0"
       d="m 90.167284,174.07806 34.226766,5.52045 34.22677,-6.99256 -2.20818,-8.83272 -31.28253,6.25651 -31.650557,-5.88848"
       id="path36" />
    <path
       style="fill:#1a1a1a;fill-opacity:1;stroke:#000000;stroke-width:0.264583;stroke-opacity:0"
       d="m 101.57621,138.74721 47.47583,-1.84015 -5.88847,9.20074 h -36.43495"
       id="path37" />
    <path
       style="fill:#1a1a1a;fill-opacity:1;stroke:#000000;stroke-width:0.264583;stroke-opacity:0"
       d="m 114.82528,70.293679 -5.52045,5.520446 12.88104,-0.73606"
       id="path38" />
    <path
       style="fill:#1a1a1a;fill-opacity:1;stroke:#000000;stroke-width:0.264583;stroke-opacity:0"
       d="m 132.85873,71.397769 -6.2565,4.416356 11.77695,-1.10409"
       id="path39" />
    <path
       style="fill:#1a1a1a;fill-opacity:1;stroke:#000000;stroke-width:0.264583;stroke-opacity:0"
       d="m 139.48327,65.141263 15.08922,-8.832713 0.73606,-24.657994 3.6803,25.394052 -15.45725,12.881041"
       id="path40" />
    <path
       style="fill:#1a1a1a;fill-opacity:1;stroke:#000000;stroke-width:0.264583;stroke-opacity:0"
       d="M 108.20074,65.141263 98.263939,54.4684 101.20818,34.226764 93.847583,56.67658 105.2565,68.453531"
       id="path41" />
    <path
       style="fill:#1a1a1a;fill-opacity:1;stroke:#000000;stroke-width:0.264583;stroke-opacity:0"
       d="m 146.1078,116.66543 31.28253,-18.033461 31.28253,-5.152416 24.65799,5.152416 15.08922,15.825281 -20.24163,9.20074 -30.54647,5.15242 c 0,0 -25.76208,5.15241 -30.54647,3.31227 -4.78439,-1.84015 -19.50558,-7.3606 -19.50558,-7.3606"
       id="path42" />
    <path
       style="fill:#1a1a1a;fill-opacity:1;stroke:#000000;stroke-width:0.264583;stroke-opacity:0"
       d="m 150.52416,126.97026 20.9777,8.46468 35.69888,25.39405 -1.84015,14.72119 -29.81041,-6.2565 -18.03345,-14.72119 -9.20075,-17.66543"
       id="path43" />
    <path
       style="fill:#1a1a1a;fill-opacity:1;stroke:#000000;stroke-width:0.264583;stroke-opacity:0"
       d="M 103.41636,117.03346 C 99.368029,116.2974 75.078065,101.20818 75.078065,101.20818 L 38.643123,95.319701 20.977695,105.99256 43.059479,124.02602 c 0,0 24.289962,1.10409 26.86617,0.73606 2.576208,-0.36803 29.81041,-0.73606 29.81041,-0.73606"
       id="path44" />
    <path
       style="fill:#1a1a1a;fill-opacity:1;stroke:#000000;stroke-width:0.264583;stroke-opacity:0"
       d="m 98.631969,131.38662 -47.475835,-2.20818 -20.977696,3.68029 -12.513011,21.34573 c 0,0 25.762082,1.10409 28.33829,1.10409 2.576209,0 37.907063,-6.25651 37.907063,-6.25651 l 17.2974,-10.67286"
       id="path45" />
  </g>
</svg>
