<?xml version="1.0" encoding="UTF-8" standalone="no"?>
<!-- Created with Inkscape (http://www.inkscape.org/) -->

<svg
   width="128mm"
   height="128mm"
   viewBox="0 0 128 128"
   version="1.1"
   id="svg1"
   inkscape:version="1.4 (86a8ad7, 2024-10-11)"
   sodipodi:docname="red_tulip_v1.svg"
   xmlns:inkscape="http://www.inkscape.org/namespaces/inkscape"
   xmlns:sodipodi="http://sodipodi.sourceforge.net/DTD/sodipodi-0.dtd"
   xmlns="http://www.w3.org/2000/svg"
   xmlns:svg="http://www.w3.org/2000/svg">
  <sodipodi:namedview
     id="namedview1"
     pagecolor="#505050"
     bordercolor="#eeeeee"
     borderopacity="1"
     inkscape:showpageshadow="0"
     inkscape:pageopacity="0"
     inkscape:pagecheckerboard="0"
     inkscape:deskcolor="#505050"
     inkscape:document-units="mm"
     inkscape:zoom="1.4378367"
     inkscape:cx="155.44185"
     inkscape:cy="249.3329"
     inkscape:window-width="1920"
     inkscape:window-height="1009"
     inkscape:window-x="-8"
     inkscape:window-y="-4"
     inkscape:window-maximized="1"
     inkscape:current-layer="layer1" />
  <defs
     id="defs1" />
  <g
     inkscape:label="Lager 1"
     inkscape:groupmode="layer"
     id="layer1">
    <path
       style="fill:#bd4b00;stroke:#000000;stroke-width:0.765;stroke-opacity:1;fill-opacity:1;stroke-dasharray:none"
       d="m 37.907063,25.394052 c -1.034336,1.951299 -0.763191,3.954568 -0.920076,6.072492 -0.06408,0.865084 -0.245353,1.717471 -0.368027,2.576208 -0.122677,1.165426 -0.284538,2.327394 -0.36803,3.496281 -0.142309,1.992317 -0.142724,4.626427 0,6.624536 0.0618,0.865249 0.289494,1.712315 0.36803,2.576209 0.06072,0.667969 -0.07406,1.357669 0,2.024163 0.110022,0.990211 0.258471,1.958234 0.368027,2.944238 0.107718,0.969444 -0.107714,1.974792 0,2.944236 0.06908,0.621704 0.305787,1.217723 0.368031,1.84015 0.09723,0.972273 0.07616,1.973525 0.184015,2.944236 0.341815,3.076324 0.0191,-1.154438 0.36803,1.288105 0.0347,0.242888 -0.05951,0.498033 0,0.736061 0.133061,0.532243 0.58534,0.944599 0.73606,1.472117 0.05055,0.176935 -0.06834,0.381191 0,0.552046 0.06443,0.161081 0.263935,0.229237 0.36803,0.36803 0.404752,0.53967 0.58366,1.279459 0.920073,1.840148 0.366408,0.610679 1.194421,1.128461 1.656135,1.656133 0.201957,0.230809 0.321236,0.534103 0.552043,0.73606 0.269168,0.235521 0.637754,0.332462 0.920075,0.552045 0.273891,0.213027 0.4518,0.537078 0.73606,0.73606 0.674177,0.471924 1.497341,0.689433 2.208178,1.104088 0.382064,0.222872 0.70847,0.53825 1.104088,0.73606 1.243518,0.621758 2.734064,0.850016 4.048329,1.288103 1.784797,0.594934 3.487221,1.286293 5.336431,1.656136 1.090647,0.218127 3.431651,0.660908 4.784387,0.736057 1.102389,0.06125 2.209876,-0.06124 3.312265,0 5.506943,0.305943 -4.372565,0.184015 4.968402,0.184015 2.574395,0 5.187653,-0.07561 7.728624,-0.552042 0.935919,-0.175485 1.836428,-0.505111 2.760224,-0.736061 1.45343,-0.363357 4.586239,-1.330597 5.520446,-2.576208 0.164589,-0.21945 0.215868,-0.507817 0.36803,-0.73606 0.301628,-0.45244 0.989245,-1.158036 1.288106,-1.656133 0.56444,-0.940737 1.020325,-1.950299 1.472117,-2.944238 0.680615,-1.497354 1.54014,-2.913269 2.208178,-4.416356 0.315114,-0.709004 0.415002,-1.501849 0.736061,-2.208178 0.421928,-0.928243 1.013354,-1.752812 1.288102,-2.760224 0.368057,-1.349536 0.621253,-2.720525 1.104091,-4.048328 0.338275,-0.93026 0.927801,-1.974657 1.104088,-2.944239 0.06584,-0.362093 -0.02823,-0.737142 0,-1.104087 0.01037,-0.134729 0.307482,-2.170184 0.36803,-2.392194 0.08691,-0.318677 0.281117,-0.601397 0.36803,-0.920075 0.558133,-2.046491 0.561983,-4.167584 0.73606,-6.256504 0.07719,-0.926237 0.276611,-1.846056 0.36803,-2.760223 0.119706,-1.197065 0,-2.475315 0,-3.680299 0,-1.192207 0.147627,-2.49928 0,-3.680296 -0.03137,-0.250952 -0.148249,-0.485698 -0.184015,-0.73606 -0.02603,-0.182166 0.05055,-0.37511 0,-0.552045 -0.07536,-0.263758 -0.292671,-0.4723 -0.36803,-0.73606 -0.119155,-0.417038 -0.106429,-0.861372 -0.184015,-1.288103 -0.07759,-0.426732 -0.07882,-0.867327 -0.184015,-1.288104 -0.02103,-0.08416 -0.122677,-0.122677 -0.184015,-0.184015 -0.06134,-0.122677 -0.157115,-0.233537 -0.184015,-0.36803 -0.04812,-0.240588 0.173492,-0.562569 0,-0.736059 -0.207563,-0.207565 -1.39894,1.001636 -1.472118,1.104089 -0.367062,0.513886 -0.637651,1.091288 -0.920075,1.656134 -0.428083,0.856166 -0.776388,1.757463 -1.288103,2.576208 -0.162547,0.260072 -0.427487,0.4558 -0.552045,0.73606 -0.386795,0.870284 -0.171696,2.723267 -0.36803,3.312266 -1.049441,3.148322 -0.620268,0.446582 -1.472118,2.576208 -0.11616,0.290396 -0.06786,0.62968 -0.184015,0.920076 -0.421712,1.054272 -1.065962,2.463477 -1.656136,3.496283 -0.19486,0.341008 -0.560411,0.56878 -0.736057,0.920073 -0.07838,0.156765 -0.04276,0.594802 -0.184016,0.73606 -0.645541,0.645541 -2.40249,-1.957253 -2.576208,-2.208178 -1.539655,-2.223945 -3.366984,-4.47407 -4.416359,-6.992567 -0.493543,-1.184505 -0.753588,-2.453545 -1.104087,-3.680296 -0.279551,-0.978426 -0.675225,-1.964843 -0.920076,-2.944238 -0.09926,-0.397037 -0.0245,-1.919904 -0.920072,-1.472119 -0.46223,0.231115 -0.757084,1.227633 -0.920076,1.472119 -0.265739,0.398608 -0.673597,0.693292 -0.920075,1.104089 -0.310811,0.518021 -0.490704,1.104089 -0.736057,1.656134 -0.85896,1.932657 -1.425618,3.932068 -2.208181,5.888477 -0.600961,1.502404 -0.896358,1.377262 -1.288103,2.944238 -0.313145,1.252582 -0.210164,2.610749 -0.552045,3.864311 -0.267888,0.982258 -0.436502,0.731792 -0.552045,1.656133 -0.03043,0.243459 0.05951,0.498033 0,0.73606 -0.01487,0.05951 -0.122677,0 -0.184015,0 -0.670489,0 -0.746742,0.06665 -1.288103,-0.552045 -0.859552,-0.982345 -0.878549,-1.161016 -1.656133,-2.392193 -1.296556,-2.052881 -2.445218,-4.16637 -3.680299,-6.256504 -0.953034,-1.612829 -2.062747,-3.131593 -2.944238,-4.784387 -0.260387,-0.488227 -1.595377,-4.01795 -2.024163,-4.232343 -0.05486,-0.02743 -0.161234,-0.05695 -0.184015,0 -0.107611,0.269033 -0.311028,1.824656 -0.36803,2.024163 -0.143973,0.503912 -0.386318,0.974939 -0.552043,1.47212 -0.202509,0.607528 -0.396729,1.218877 -0.552045,1.840148 -0.151715,0.606854 -0.141308,1.257152 -0.36803,1.840148 -0.610595,1.570101 -1.791274,2.493417 -2.392193,4.416359 -0.150871,0.482782 -0.197908,0.995778 -0.36803,1.472118 -0.390255,1.092716 -1.150374,1.932715 -1.656133,2.944238 -0.113104,0.226205 -0.0052,0.557228 -0.184015,0.73606 -0.09699,0.09698 -0.237913,0.140642 -0.36803,0.184015 -0.946494,0.315497 -1.16422,-0.428159 -1.656136,-0.920075 C 49.09912,40.450423 48.822011,40.303532 48.579926,40.115241 46.69505,38.649227 45.666855,36.582757 44.163569,34.778809 43.885902,34.445612 43.4986,34.209505 43.243494,33.858737 43.00148,33.525965 42.912358,33.101788 42.691449,32.754646 42.480587,32.423293 42.157462,32.171359 41.955389,31.834571 41.785444,31.551327 41.710038,31.22119 41.587361,30.914498 41.403346,30.607807 41.224874,30.29772 41.035316,29.994423 c -0.518504,-0.829604 -1.147347,-1.883407 -1.840148,-2.576208 -0.282432,-0.28243 -0.728562,-0.305149 -0.920075,-0.73606 -0.181361,-0.408061 -0.245354,-0.858735 -0.36803,-1.288103 z"
       id="path1" />
    <path
       style="fill:#326a2b;fill-opacity:1;stroke:#000000;stroke-width:0.765;stroke-dasharray:none;stroke-opacity:1"
       d="m 58.148698,74.342008 c 0.184015,0.245353 0.485513,0.436671 0.552045,0.736057 0.416243,1.873094 0.271656,4.170897 0,6.072492 -0.08587,0.601115 0.08587,1.239033 0,1.840148 -0.228671,1.6007 -0.10587,-0.0227 -0.36803,1.288105 -0.02405,0.120293 0,0.245354 0,0.36803 0,0.184013 0.03609,0.371602 0,0.552043 -0.0269,0.134493 -0.150749,0.234968 -0.184015,0.36803 -0.07438,0.297535 0.06015,0.619339 0,0.920075 -0.0269,0.134493 -0.150749,0.234969 -0.184015,0.36803 -0.217456,0.869821 -0.184015,1.849499 -0.184015,2.760224 0,3.373604 0,6.747211 0,10.120817 0,1.411301 -0.231008,3.030311 0,4.416361 0.02254,0.13528 0.150749,0.23496 0.184015,0.36803 0.2256,0.90239 0,2.2034 0,3.12825 0,1.59479 0,3.18959 0,4.78439 0,0.61338 0,1.22676 0,1.84014 0,0.3067 0,0.61339 0,0.92008 0,0.0613 -0.06134,0.18401 0,0.18401 0.06134,0 0,-0.12268 0,-0.18401 0,-0.12268 0.08675,-0.28129 0,-0.36803 -0.245353,-0.24535 -0.184015,0.30669 -0.184015,-0.18402 0,-0.67435 -0.184015,-0.71207 -0.184015,-1.2881 0,-1.59184 0.07759,0.0199 -0.184015,-1.2881 -0.105545,-0.52773 0.130283,-1.13501 0,-1.65614 -0.12247,-0.48988 -0.184015,-0.40325 -0.184015,-0.92007 0,-1.73183 -0.03554,-3.30596 -0.368028,-4.9684 -0.09359,-0.46793 0.11557,-1.00984 0,-1.47212 -0.105629,-0.42252 -0.297137,-0.86275 -0.36803,-1.28811 -0.04033,-0.24201 0.0347,-0.49317 0,-0.73606 -0.12682,-0.88774 -0.514278,-2.13264 -0.920075,-2.944236 -0.507915,-1.015831 -1.174874,-1.873192 -1.840148,-2.760223 -0.164589,-0.219451 -0.174061,-0.542089 -0.36803,-0.736058 -0.09699,-0.09699 -0.271045,-0.08703 -0.36803,-0.184015 -0.156382,-0.156385 -0.198131,-0.410464 -0.36803,-0.552045 -0.210733,-0.175612 -0.527786,-0.189511 -0.736061,-0.36803 -0.232857,-0.199591 -0.316436,-0.539721 -0.552042,-0.736061 -0.149011,-0.124174 -0.385718,-0.08422 -0.552045,-0.184015 -0.469707,-0.281823 -0.450369,-0.822264 -0.920076,-1.104087 -0.435162,-0.261099 -0.869622,-0.422201 -1.288102,-0.736061 -0.138793,-0.104095 -0.229238,-0.263935 -0.368031,-0.36803 -0.411601,-0.3087 -1.110125,-0.374065 -1.472117,-0.736057 -0.245354,-0.245354 0.390353,-0.176575 -0.184015,-0.36803 -0.362212,-0.120738 -0.786572,-0.156351 -1.104091,-0.368031 -0.144354,-0.09624 -0.271793,-0.223676 -0.36803,-0.36803 -0.03402,-0.05103 0.06134,-0.184015 0,-0.184015 -0.06134,0 0.01939,0.125826 0,0.184015 -0.04337,0.13012 -0.122677,0.245354 -0.184015,0.36803 -0.184539,0.369081 -0.485365,0.888037 -0.552045,1.288103 -0.04034,0.242017 0.0347,0.493173 0,0.73606 -0.128556,0.899904 -0.772867,1.692969 -0.920073,2.576209 -0.05042,0.302519 0.06015,0.619339 0,0.920075 -0.192095,0.960469 -0.36803,1.143169 -0.36803,2.208178 0,1.152943 -0.220607,2.761282 0,3.864314 0.122404,0.61202 0.446873,1.20911 0.552045,1.84015 0.03025,0.18151 -0.06834,0.38119 0,0.55204 0.53856,1.3464 0.275855,-0.73706 0.552045,0.92008 0.09246,0.55478 0.05655,1.137 0.368028,1.65613 0.08926,0.14877 0.303599,0.20695 0.36803,0.36803 0.527574,1.31893 -0.614302,-0.22644 0.184015,1.10409 0.08926,0.14877 0.27877,0.21926 0.36803,0.36803 0.372769,0.62128 0.457237,1.03902 0.920076,1.65613 0.232118,0.3095 0.135908,0.61058 0.36803,0.92008 0.08229,0.10972 0.291946,0.0699 0.368027,0.18401 0.06805,0.10207 -0.05486,0.2583 0,0.36803 0.155176,0.31035 0.52787,0.45847 0.73606,0.73606 0.16459,0.21945 0.174062,0.54209 0.36803,0.73606 0.09698,0.097 0.271045,0.087 0.368031,0.18402 0.193968,0.19396 0.174061,0.54208 0.36803,0.73605 0.09698,0.097 0.271044,0.087 0.368027,0.18402 0.309409,0.30941 0.341381,0.62406 0.73606,0.92007 0.109726,0.0823 0.285737,0.0743 0.368031,0.18402 0.116382,0.15517 0.03255,0.43087 0.184015,0.55204 0.197485,0.15799 0.533736,0.0323 0.73606,0.18402 0.09814,0.0736 -0.08675,0.28128 0,0.36803 0.08674,0.0867 0.251648,-0.0388 0.36803,0 0.260982,0.087 0.262737,0.44675 0.368027,0.55204 0.294678,0.29468 0.79651,0.32136 1.104091,0.55205 0.109725,0.0823 0.0664,0.29746 0.184015,0.36803 0.216863,0.13011 0.496133,0.10404 0.73606,0.18401 1.226765,0.40892 -0.429368,-0.10223 0.552043,0.55205 0.102073,0.068 0.249018,-0.0298 0.36803,0 0.283824,0.071 0.839925,0.41996 1.10409,0.55204 0.450088,0.22504 4.528765,0 5.520447,0 0.162427,0 2.360355,0.0318 2.392193,0 0.04337,-0.0434 -0.04337,-0.14064 0,-0.18402 0.08674,-0.0867 0.281284,0.0868 0.36803,0 0.08674,-0.0867 -0.05486,-0.2583 0,-0.36802 0.08883,-0.17766 0.471736,-1.02379 0.552042,-1.10409 0.08675,-0.0867 0.281284,0.0867 0.368031,0 0.380732,-0.38074 -0.581811,0.0149 0.184015,-0.36803 0.178829,-0.0894 0.557231,-0.0946 0.73606,-0.18402 0.07759,-0.0388 0.101722,-0.15658 0.184015,-0.18401 0.232762,-0.0776 0.49803,0.0595 0.736058,0 0.378817,-0.0947 0.594989,-0.44369 0.920075,-0.55205 0.392999,-0.131 1.243372,-0.19113 1.656133,-0.36803 0.203276,-0.0871 0.342236,-0.29809 0.552045,-0.36803 0.174572,-0.0582 0.38119,0.0683 0.552045,0 0.364665,-0.14586 0.568783,-0.56041 0.920075,-0.73606 1.001803,-0.5009 1.741483,-0.86408 2.392194,-1.84014 0.891233,-1.33686 -0.107773,-0.26026 0.736057,-1.1041 0.485603,-0.4856 1.687555,-1.23536 2.024166,-1.65613 0.121171,-0.15146 0.06284,-0.40058 0.184015,-0.55204 0.138155,-0.1727 0.39566,-0.21165 0.552042,-0.36803 0.09699,-0.097 0.122677,-0.24536 0.184015,-0.36803 0.184015,-0.18402 0.352126,-0.38545 0.552046,-0.55205 0.679839,-0.56653 1.73488,-1.23533 2.208178,-2.02416 0.0998,-0.16633 0.06763,-0.39687 0.184015,-0.55204 0.08229,-0.10973 0.28235,-0.0769 0.36803,-0.18402 0.171363,-0.2142 0.215868,-0.50782 0.36803,-0.73606 0.09623,-0.14435 0.281953,-0.2174 0.36803,-0.36803 1.084853,-1.89849 -0.115057,-0.13792 0.552043,-1.47212 0.649851,-1.2997 1.047107,-2.050288 1.288105,-3.496281 0.100206,-0.601234 0.463076,-1.033367 0.552045,-1.656133 0.05205,-0.364331 -0.04565,-0.738902 0,-1.10409 0.142862,-1.142897 0.36803,-2.153955 0.36803,-3.312266 0,-1.042752 0,-2.085504 0,-3.128253 0,-0.245354 0,-0.490707 0,-0.736061 0,-0.06134 0.06134,-0.184015 0,-0.184015 -0.06134,0 0.01939,0.125825 0,0.184015 -0.06385,0.191545 -0.187568,0.431737 -0.36803,0.552045 -0.634497,0.422998 -1.230392,0.830787 -1.84015,1.288103 -0.554842,0.416134 -1.107149,0.848918 -1.656133,1.288106 -0.61585,0.492678 -1.440458,0.787783 -2.024163,1.288102 -0.559795,0.479825 -1.054124,1.204627 -1.656133,1.656136 -0.328287,0.246213 -0.81788,0.449847 -1.104091,0.736058 -0.156381,0.156384 -0.195333,0.41389 -0.36803,0.552045 -0.151463,0.121171 -0.400579,0.06284 -0.552045,0.184015 -0.172693,0.138157 -0.195334,0.413888 -0.36803,0.552045 -0.716632,0.238876 -0.414888,0.04686 -0.920073,0.552045 -0.184015,0.184015 -0.389477,0.348832 -0.552045,0.552043 -0.08568,0.107103 -0.0664,0.297463 -0.184015,0.36803 -0.216863,0.130119 -0.525629,0.04373 -0.73606,0.184015 -0.184015,0.122677 -0.195334,0.413888 -0.368028,0.552045 -0.151466,0.121171 -0.38572,0.08422 -0.552045,0.184015 -0.336785,0.20207 -0.642352,0.458338 -0.920075,0.73606 -0.09698,0.09698 -0.08703,0.271045 -0.184015,0.368028 -0.252905,0.252908 -0.640789,0.328618 -0.920073,0.552048 -1.654519,1.32361 0.649944,-0.46593 -0.552045,0.73606 -0.156382,0.15638 -0.395663,0.21165 -0.552045,0.36803 -0.339585,0.33958 -0.965033,1.25229 -1.288103,1.65613 -0.425236,0.53155 -0.96443,0.64075 -1.288105,1.28811 -0.112774,0.22554 -0.756293,0.9403 -0.920076,1.10408 -0.09698,0.097 -0.271044,0.087 -0.368027,0.18402 -0.401847,0.40184 -0.03825,0.29877 -0.184015,0.73606 -0.09651,0.28952 -0.562576,0.47583 -0.73606,0.73606 -0.07608,0.11412 -0.08703,0.27104 -0.184015,0.36803 -0.09699,0.097 -0.29195,0.0699 -0.368031,0.18401 -0.06805,0.10208 0.03879,0.25165 0,0.36803 -0.07899,0.23697 -0.473056,0.4991 -0.552045,0.73606 -0.03879,0.11638 0.0388,0.25165 0,0.36803 -0.0498,0.14941 -0.474038,1.13209 -0.552042,1.2881 -0.271711,0.54342 -0.552045,2.08004 -0.552045,2.76023 0,0.15196 -0.09936,1.9248 -0.368031,1.65613 -0.130119,-0.13012 0.08229,-0.38745 0,-0.55204 -0.07759,-0.15518 -0.303596,-0.20695 -0.36803,-0.36803 -0.06134,-0.15335 0.04089,-0.71561 0,-0.92008 -0.282718,-1.41359 -1.014293,-5.14799 -0.36803,-6.44052 0.269888,-0.53977 -0.269888,-1.48438 0,-2.02416 0.291582,-0.58316 0.03472,-0.87494 0.184015,-1.47212 0.0947,-0.3788 0.273331,-0.72529 0.36803,-1.10409 0.212053,-0.84821 -0.275775,-1.9329 0,-2.760221 0.04337,-0.130119 0.150749,-0.234968 0.184015,-0.36803 0.104519,-0.418073 0.0766,-6.241529 0,-6.624537 -0.0269,-0.134493 -0.157117,-0.233534 -0.184015,-0.368027 -0.119546,-0.597739 -0.152987,-3.068355 0,-3.680299 0.03327,-0.133061 0.150749,-0.234968 0.184015,-0.36803 0.04463,-0.17852 -0.08229,-0.387456 0,-0.552045 0.03879,-0.07759 0.156583,-0.101719 0.184015,-0.184012 0.145664,-0.436989 -0.09074,-1.0184 0,-1.472121 0.07608,-0.380405 0.273942,-0.727734 0.368031,-1.104088 0.05413,-0.216529 -0.09772,-0.540623 0,-0.73606 0.223647,-0.447297 0.07939,-0.710819 0.184015,-0.920075 0.03879,-0.07759 0.156583,-0.101722 0.184015,-0.184015 0.08983,-0.269489 -0.06896,-0.644234 0,-0.920073 0.222149,-0.888598 0.08745,0.0091 0.368027,-0.552045 0.09814,-0.196284 -0.09814,-0.539777 0,-0.73606 0.437359,-0.874718 0.191191,-2.958587 0.36803,-3.312269 0.286179,-0.572357 0.184015,-1.338754 0.184015,-2.024163"
       id="path2" />
  </g>
</svg>
