<?xml version="1.0" encoding="UTF-8" standalone="no"?>
<!-- Created with Inkscape (http://www.inkscape.org/) -->

<svg
   width="128mm"
   height="128mm"
   viewBox="0 0 128 128"
   version="1.1"
   id="svg1"
   inkscape:version="1.4 (86a8ad7, 2024-10-11)"
   sodipodi:docname="wasp_v1.svg"
   xmlns:inkscape="http://www.inkscape.org/namespaces/inkscape"
   xmlns:sodipodi="http://sodipodi.sourceforge.net/DTD/sodipodi-0.dtd"
   xmlns="http://www.w3.org/2000/svg"
   xmlns:svg="http://www.w3.org/2000/svg">
  <sodipodi:namedview
     id="namedview1"
     pagecolor="#505050"
     bordercolor="#eeeeee"
     borderopacity="1"
     inkscape:showpageshadow="0"
     inkscape:pageopacity="0"
     inkscape:pagecheckerboard="0"
     inkscape:deskcolor="#505050"
     inkscape:document-units="mm"
     showgrid="false"
     inkscape:zoom="1.4378367"
     inkscape:cx="209.69002"
     inkscape:cy="215.94942"
     inkscape:window-width="1920"
     inkscape:window-height="1009"
     inkscape:window-x="1912"
     inkscape:window-y="-8"
     inkscape:window-maximized="1"
     inkscape:current-layer="layer1" />
  <defs
     id="defs1" />
  <g
     inkscape:label="Lager 1"
     inkscape:groupmode="layer"
     id="layer1">
    <path
       style="fill:#cbca4b;stroke:#000000;stroke-width:0.765;fill-opacity:1"
       d="m 101.94424,56.860595 c -0.24536,-0.245353 -0.49071,-0.981413 -0.73606,-0.73606 -0.24536,0.245354 1.05822,0.864926 0.73606,0.73606 -4.859247,-1.943698 -0.72085,-0.352819 -1.84015,-1.47212 -0.193972,-0.193969 -0.583899,-0.139787 -0.736061,-0.36803 -0.06805,-0.102074 0.08674,-0.281284 0,-0.36803 -0.08675,-0.08674 -0.25165,0.0388 -0.36803,0 -0.169791,-0.05659 -0.846468,-0.62565 -0.920075,-0.736058 -0.03402,-0.05104 0.05486,-0.156586 0,-0.184015 -0.109725,-0.05486 -0.258305,0.05486 -0.36803,0 -0.09157,-0.04578 -0.619175,-0.43516 -0.736058,-0.552045 -0.299461,-0.299458 -0.598135,-0.260718 -0.920075,-0.36803 -0.574368,-0.191455 0.06134,-0.122677 -0.184015,-0.36803 -0.09453,-0.09453 -1.935639,-0.96782 -2.208178,-1.104088 -0.155176,-0.07759 -0.223676,-0.271796 -0.36803,-0.36803 -0.118764,-0.07918 -0.656365,-0.288335 -0.736061,-0.36803 -0.04337,-0.04337 0.04337,-0.140642 0,-0.184015 -0.08674,-0.08675 -0.258302,0.05486 -0.368027,0 -0.765826,-0.382913 0.196718,0.0127 -0.184015,-0.368031 -0.08675,-0.08674 -0.258305,0.05486 -0.36803,0 -0.155176,-0.07759 -0.212855,-0.290441 -0.36803,-0.36803 -0.405609,-0.202803 -1.172316,-0.655423 -1.656133,-0.736057 -0.242017,-0.04034 -0.495472,0.04812 -0.736061,0 -0.08506,-0.01701 -0.101721,-0.156586 -0.184015,-0.184015 -0.967835,-0.322612 -2.355704,0.221027 -3.128253,0.736057 -0.293769,0.195847 -0.326676,0.510694 -0.552045,0.736061 -0.09698,0.09699 -0.271045,0.08703 -0.368028,0.184015 -0.119866,0.119864 -0.268144,0.586229 -0.36803,0.73606 -0.09624,0.144351 -0.303599,0.206946 -0.36803,0.36803 -0.06834,0.170852 0.03025,0.370533 0,0.552042 -0.03189,0.191331 -0.145976,0.361845 -0.184015,0.552046 -0.04812,0.240588 0.07759,0.503298 0,0.73606 -0.02743,0.08229 -0.156583,0.101722 -0.184015,0.184015 -0.160303,0.480912 0,1.324062 0,1.840148 0,0.349144 0.08746,0.938255 0,1.288105 -0.14147,0.565875 -0.456263,1.26546 -0.552045,1.840148 -0.402265,2.413596 -0.73606,4.837787 -0.73606,7.360595 0,0.591976 -0.218006,2.508221 0,2.944238 0.0388,0.07759 0.162978,0.09986 0.184015,0.184015 0.05951,0.238027 -0.07759,0.503296 0,0.736058 0.172407,0.517223 0.450233,0.859364 0.73606,1.288105 0.140287,0.210429 0.04373,0.525629 0.184015,0.73606 0.07608,0.11412 0.291949,0.06989 0.36803,0.184015 0.183227,0.274839 0.220308,0.624629 0.36803,0.920073 0.615715,1.231434 0.120338,-0.127352 0.736058,1.10409 0.403114,0.806226 1.516504,1.332487 2.024165,1.840148 1.022459,1.022462 3.521684,1.817489 4.968402,2.024163 0.771691,0.110242 1.613368,0 2.392193,0 0.30144,0 1.270817,0.201301 1.472118,0 0.312766,-0.312764 0.452895,-0.764291 0.73606,-1.104087 0.07752,-0.408424 0.519195,-0.335182 0.73606,-0.552045 0.332791,-0.332793 0.410057,-0.962102 0.736058,-1.288106 0.156384,-0.156382 0.413888,-0.195334 0.552045,-0.368027 0.121171,-0.151466 0.06284,-0.400582 0.184015,-0.552046 0.362149,-0.241432 0.657868,-0.386453 0.920075,-0.73606 0.195141,-0.260188 1.491166,-1.941682 1.656136,-2.024163 0.19786,-0.09893 0.53605,-0.352041 0.73606,-0.552045 0.0434,-0.04337 -0.0434,-0.140642 0,-0.184015 0.24535,-0.245353 0.17657,0.390356 0.36803,-0.184015 0.0388,-0.11638 -0.0388,-0.251648 0,-0.36803 0.19145,-0.574368 0.12267,0.06134 0.36803,-0.184015 0.13221,-0.132215 0.22164,-0.77369 0.36803,-0.920073 0.0434,-0.04337 0.15658,0.05486 0.18401,0 0.0549,-0.109725 -0.0549,-0.258305 0,-0.36803 0.0274,-0.05486 0.14064,0.04337 0.18402,0 0.0339,-0.03391 0.1501,-0.518139 0.18401,-0.552045 0.0434,-0.04337 0.15658,0.05486 0.18402,0 0.0549,-0.109726 -0.0388,-0.251648 0,-0.36803 0.0274,-0.08214 0.90592,-1.825998 0.92007,-1.840148 0.0434,-0.04337 0.14064,0.04337 0.18402,0 0.0434,-0.04337 -0.0274,-0.129151 0,-0.184015 0.1104,-0.220819 0.44163,-0.331227 0.55204,-0.552046 0.0943,-0.1887 0.0897,-0.547356 0.18401,-0.736057 0.15645,-0.312896 0.40281,-0.621591 0.55205,-0.920075 0.16099,-0.321977 0,-1.113661 0,-1.472118 0,-0.36313 0.15871,-1.154697 0,-1.472121 -0.11041,-0.220818 -0.44164,-0.331226 -0.55205,-0.552045 -0.10452,-0.209045 -0.11654,-0.384387 -0.36803,-0.552042 -0.11412,-0.07608 -0.27104,-0.08703 -0.36802,-0.184016 -0.0339,-0.03391 -0.15011,-0.518138 -0.18402,-0.552045 -0.097,-0.09699 -0.27105,-0.08703 -0.36803,-0.184015 -0.0434,-0.04337 0.0274,-0.129153 0,-0.184015 -0.12988,-0.259762 -0.36224,-0.273127 -0.55204,-0.36803 -0.12268,-0.06134 -0.0613,-0.306692 -0.18402,-0.36803 -0.10972,-0.05486 -0.25165,0.03879 -0.36803,0 -0.44317,-0.147722 -0.85873,-0.36803 -1.2881,-0.552043 z"
       id="path1" />
    <path
       style="fill:#cbca4b;fill-opacity:1;stroke:#000000;stroke-width:0.765"
       d="m 83.54275,56.124535 c -2.001996,-0.726228 -4.205568,-1.141365 -6.072492,-2.208178 -0.311065,-0.177752 -0.730218,-0.642593 -1.104087,-0.73606 -0.119015,-0.02975 -0.249016,0.02975 -0.368031,0 -0.56226,-0.140565 -1.081693,-0.62117 -1.656132,-0.73606 -0.629778,-0.125955 -1.218748,-0.21268 -1.840151,-0.368031 -1.209942,-0.302484 -3.627472,0.167617 -4.968401,0 -0.38494,-0.04812 -0.720051,-0.313166 -1.104088,-0.368027 -0.846955,-0.120994 -3.346241,-0.126587 -4.232344,0 -0.384037,0.05486 -0.721429,0.304252 -1.104088,0.368027 -0.363021,0.0605 -0.743206,-0.07218 -1.10409,0 -0.134493,0.0269 -0.234968,0.150752 -0.36803,0.184016 -0.62697,0.156744 -1.383477,0.02384 -2.024163,0.184015 -0.252002,0.063 -0.526132,0.315547 -0.736058,0.36803 -0.81689,0.204224 -0.292285,-0.234511 -0.920075,0.184015 -0.709451,0.472969 -0.81865,1.21421 -1.288105,1.840148 -0.348822,0.465095 -0.574128,1.010859 -0.920073,1.47212 -0.104095,0.138793 -0.303599,0.206947 -0.36803,0.36803 -0.06834,0.170852 0.03609,0.371602 0,0.552043 0.136678,0.340561 -0.314391,0.337489 -0.36803,0.552045 -0.251074,1.0043 -0.285769,3.214791 -0.184015,4.232341 0.05654,0.565378 0.320897,1.929897 0.552045,2.392196 0.07759,0.155173 0.290441,0.212855 0.36803,0.368027 0.17349,0.346983 0.304252,0.721432 0.36803,1.104091 0.04034,0.242014 -0.06741,0.500147 0,0.73606 0.06076,0.212648 0.298093,0.342233 0.368028,0.552043 0.05819,0.174572 0,0.36803 0,0.552045 0.06134,0.245353 0.08439,0.503605 0.184015,0.73606 0.234677,0.547576 0.60358,0.997376 0.920075,1.472118 0.259122,0.388683 0.244433,0.936548 0.552045,1.288105 0.315468,0.360535 0.765337,0.581322 1.104088,0.920073 0.156384,0.156384 0.211648,0.395663 0.36803,0.552045 0.31722,0.31722 1.822143,1.147728 2.208178,1.288105 0.644496,0.23436 1.349444,0.245354 2.024166,0.368031 3.176198,0.57749 6.157682,0.736057 9.384757,0.736057 0.689147,0 4.621853,0.134324 5.152417,-0.184015 0.965041,-0.579025 1.764598,-1.873062 2.208178,-2.760223 0.228478,-0.456954 0.157067,0.07931 0.552045,-0.184013 0.11412,-0.07608 0.122677,-0.245353 0.184015,-0.36803 0.184015,-0.06134 0.378553,-0.09727 0.552042,-0.184015 0.281835,-0.140917 0.143905,-0.327919 0.368031,-0.552045 0.09201,-0.09201 0.276023,-0.09201 0.36803,-0.184015 0.06134,-0.06134 0.122676,-0.490707 0.184015,-0.552045 0.164033,-0.164034 0.540631,-0.0863 0.73606,-0.184015 0.50328,-0.25164 0.197294,-0.552043 0.552045,-0.552043"
       id="path2" />
    <path
       style="fill:#cbca4b;fill-opacity:1;stroke:#000000;stroke-width:0.765"
       d="m 52.260222,60.540891 c 0,-0.306691 0.306691,-0.920075 0,-0.920075 -0.306692,0 0,1.226767 0,0.920075 0,-0.154397 -0.0789,-4.679272 -0.184016,-4.784386 -0.04337,-0.04337 -0.156583,0.05486 -0.184015,0 -0.108518,-0.21704 0.136081,-0.715957 0,-0.920075 -0.116427,-0.174644 -0.932434,-1.202278 -1.104087,-1.288103 -0.180166,-0.09008 -0.357717,-0.270867 -0.552045,-0.36803 -0.164587,-0.08229 -0.371602,0.03609 -0.552046,0 -0.184015,-0.06134 -0.36803,-0.122677 -0.552042,-0.184015 -0.06134,-0.06134 -0.101722,-0.156583 -0.184015,-0.184015 -0.713693,-0.237898 -1.590202,-0.243054 -2.208178,-0.552045 -0.219451,-0.109726 -0.495472,0.04812 -0.736061,0 -0.268986,-0.0538 -0.469937,-0.301498 -0.73606,-0.368031 -0.434242,-0.108558 -5.390459,-0.0785 -5.704461,0 -0.133062,0.03327 -0.233535,0.157118 -0.368028,0.184015 -0.463513,0.09271 -1.012777,-0.114834 -1.47212,0 -1.03817,0.259543 -2.085682,0.711563 -3.128254,0.920076 -0.18044,0.03609 -0.370533,-0.03025 -0.552042,0 -0.48286,0.08047 -0.88823,0.352107 -1.288106,0.552045 -0.716182,0.35809 -0.462682,0.01429 -1.288102,0.36803 -1.730394,0.741595 0.415469,-0.0059 -0.920076,0.736058 -1.009242,0.560691 -2.383739,0.775724 -3.312268,1.47212 -0.43593,0.326948 -0.767313,0.527743 -1.288104,0.73606 -0.184015,0.06134 -0.368029,0.122674 -0.552044,0.184013 -0.06134,0.122677 -0.0664,0.297466 -0.184015,0.36803 -0.216864,0.130119 -0.496134,0.104039 -0.73606,0.184015 -0.74764,0.249214 0.01285,0.102701 -0.736059,0.552045 -0.77459,0.464754 -1.669194,0.668391 -2.392193,1.288103 -0.167916,0.143928 -0.191103,0.419351 -0.36803,0.552045 -0.09814,0.07361 -0.249016,-0.02975 -0.36803,0 -0.858736,0.214686 0.06134,0.09201 -0.552044,0.552045 -0.509001,0.381752 -1.442417,0.445186 -2.024164,0.736061 -0.155175,0.07759 -0.223677,0.271793 -0.36803,0.36803 -0.765952,0.510632 -0.384195,0.568208 -0.920074,1.104087 -0.09698,0.09699 -0.271045,0.08703 -0.36803,0.184015 -0.0648,0.0648 -0.07215,0.696339 -0.184015,0.920076 -0.07759,0.155175 -0.313167,0.203441 -0.368029,0.36803 -0.05998,0.179948 -0.295502,0.953643 -0.184015,1.288103 0.07897,0.236902 0.707863,1.14663 0.920074,1.288105 0.114121,0.07608 0.271045,0.08703 0.36803,0.184015 0.547982,0.547981 -0.275215,0.239702 0.552044,0.736058 0.166327,0.0998 0.385718,0.08422 0.552045,0.184015 0.148767,0.08926 0.219262,0.27877 0.36803,0.36803 0.775718,0.465431 2.076473,0.99885 2.944238,1.288103 0.353751,0.117919 0.933675,0.190817 1.288104,0.36803 1.013215,0.506608 2.157701,1.143783 3.312267,1.288105 0.619047,0.07738 1.227406,0.08189 1.840149,0.184015 0.66552,0.110919 1.172308,0.640654 1.840148,0.736058 0.242887,0.0347 0.493173,-0.0347 0.73606,0 1.099024,0.157004 2.324193,0.739754 3.496284,0.920075 1.860595,0.286245 -0.214686,-0.214683 1.288102,0 0.868895,0.124129 1.722364,0.409737 2.576209,0.552045 1.314013,0.219001 2.727285,-0.0047 4.048326,0.184015 0.359132,0.0513 0.749006,0.279258 1.10409,0.368031 0.401624,0.100406 0.882682,-0.08109 1.288105,0 0.134493,0.0269 0.233535,0.157114 0.368028,0.184015 0.471834,0.09437 1.000286,-0.09437 1.47212,0 0.706956,0.14139 1.292196,0.184015 2.024163,0.184015 0.385996,0 1.516843,0.215535 1.840148,0 0.144354,-0.09624 0.245354,-0.245354 0.368031,-0.36803 0.184015,-0.06134 0.378555,-0.09727 0.552045,-0.184016 0.411107,-0.205554 0.191524,-0.471299 0.36803,-0.73606 0.152162,-0.228243 0.507817,-0.215868 0.736057,-0.36803 0.276765,-0.18451 0.254397,-0.587235 0.552046,-0.73606 0.05486,-0.02743 0.164618,0.05819 0.184015,0 0.05819,-0.17457 -0.03609,-0.371602 0,-0.552043 0.10496,-0.524793 0.37874,-0.952203 0.552045,-1.47212 0.01593,-0.0478 0.224179,-2.168012 0.184015,-2.208178 -0.380733,-0.380733 0.0149,0.581811 -0.36803,-0.184015 -0.183026,-0.366051 0,-2.245511 0,-2.760224"
       id="path3" />
    <path
       style="fill:#000000;fill-opacity:1;stroke:#000000;stroke-width:0.765"
       d="m 16.009294,63.117099 c -1.810877,0.72435 -0.188685,0.207601 -1.472119,0.368031 -2.433038,0.30413 0.196982,0.03421 -1.472119,0.36803 -1.071464,0.214291 -2.393056,0 -3.4962829,0 -1.0097889,0 -2.4526944,-0.245772 -3.3122677,0.184015 -0.3054664,0.152733 -1.3465929,0.05849 -1.6561337,0.36803 -0.086746,0.08674 0.086746,0.281284 0,0.368027 -0.043373,0.04337 -0.1840148,-0.06134 -0.1840148,0 0,0.06134 0.1226765,0 0.1840148,0 0.1840148,0 0.3680296,0 0.5520447,0 0.8031168,0 1.0560788,0.256022 1.8401485,0.368031 0.1821656,0.02604 0.3716033,-0.03609 0.5520446,0 0.2689863,0.0538 0.4670735,0.314232 0.7360595,0.36803 0.1804416,0.03609 0.3874569,-0.08229 0.5520446,0 0.1226767,0.06134 0.069894,0.291949 0.1840148,0.36803 0.1020731,0.06805 0.2490161,-0.02975 0.3680299,0 0.6895487,0.172386 1.3388597,0.691639 2.0241637,0.920075 0.321197,0.40032 0.742123,0.09352 1.104089,0.184015 0.266123,0.06653 0.469937,0.301498 0.73606,0.368028 0.614774,0.153693 0.892769,-0.105659 1.472118,0.184015 0.441636,0.220818 1.214499,-0.220816 1.656134,0 0.380829,0.190415 0.638952,0.184015 1.104089,0.184015"
       id="path4" />
    <path
       style="fill:#000000;fill-opacity:1;stroke:#000000;stroke-width:0.765"
       d="m 99.368029,54.83643 c 0.514668,-0.09603 0.845781,-0.514901 1.288101,-0.736058 0.60218,-0.301088 1.39617,-0.211032 2.02417,-0.36803 0.30556,-0.07639 0.48623,-0.284755 0.73606,-0.36803 0.87469,-0.291566 1.85383,-0.238546 2.76022,-0.36803 0.3274,-0.04677 0.92796,-0.316579 1.2881,-0.36803 0.36433,-0.05205 0.74705,0.08926 1.10409,0 0.79087,-0.197716 1.54531,-0.184015 2.39219,-0.184015 0.90104,0 2.49044,-0.20546 3.31227,0 0.37457,0.09364 0.975,0.317214 1.28811,0.552045 0.13879,0.104095 0.21285,0.290441 0.36803,0.36803 0.3994,0.199702 0.87349,0.202184 1.2881,0.36803 0.46186,0.184743 0.84373,0.513871 1.2881,0.736058 0.60074,0.30037 1.27935,0.583591 1.84015,0.920075 0.14877,0.08926 0.21286,0.290444 0.36803,0.36803 0.10973,0.05486 0.25165,-0.03879 0.36803,0 0.2406,0.0802 0.82191,0.723739 0.92008,0.920075 0.0274,0.05486 -0.0434,0.140642 0,0.184015 0.097,0.09698 0.27104,0.08703 0.36803,0.184013 0.29555,0.295558 0.28193,0.575704 0.36803,0.920075 0.12118,0.484735 0.61487,0.803368 0.73606,1.288106 0.0298,0.119012 -0.0298,0.249015 0,0.368027 0.111,0.444003 0.64371,1.102749 0.73606,1.47212 0.0446,0.17852 -0.0303,0.370534 0,0.552046 0.0835,0.501332 0.35403,0.708064 0.55204,1.104087 0.12336,0.24673 -0.0497,0.855451 0,1.104091 0.0269,0.134493 0.18402,0.230873 0.18402,0.36803 0,0.06134 -0.12268,0 -0.18402,0 -0.12268,0 -0.28129,0.08674 -0.36803,0 -0.11272,-0.112723 -0.15665,-0.481587 -0.36803,-0.552045 -0.97643,-0.325475 0.26856,0.418753 -0.73606,-0.184015 -0.29297,-0.175782 -0.74213,-0.64557 -1.10409,-0.736061 -1.492,-0.373001 0.79013,0.526754 -0.55204,-0.36803 -0.10208,-0.06805 -0.25165,0.0388 -0.36803,0 -0.16459,-0.05486 -0.20344,-0.313166 -0.36803,-0.36803 -0.11638,-0.03879 -0.25413,0.04556 -0.36803,0 -0.45574,0.102018 -0.46175,-0.414888 -0.73606,-0.552042 -0.84719,-0.423593 -0.24369,-0.01193 -1.10409,-0.184015 -0.46723,-0.09345 -0.99349,-0.432388 -1.47212,-0.552046 -0.9175,-0.229375 -1.86323,-0.43706 -2.76022,-0.73606 -0.64692,-0.215641 -1.18856,-0.573161 -1.84015,-0.736057 -1.02208,-0.255522 -2.19426,0.282979 -3.12825,-0.184016 -0.20561,-0.102803 -1.91258,0.07243 -2.02417,0.184016 -0.0434,0.04337 0.0434,0.140641 0,0.184012 -0.20702,0.207026 -1.10409,0.360587 -1.10409,0"
       id="path5" />
    <path
       style="fill:#000000;fill-opacity:1;stroke:#000000;stroke-width:0.765"
       d="m 104.52045,66.981413 c 1.01235,0.833199 2.32747,1.004597 3.49628,1.472118 0.33642,0.13457 0.71592,0.455004 1.10409,0.552045 0.34456,0.08614 0.75309,-0.0585 1.10408,0 0.24947,0.04158 0.4857,0.148249 0.73606,0.184015 0.53544,0.07649 1.12634,-0.10596 1.65614,0 0.13449,0.0269 0.23353,0.157115 0.36803,0.184015 0.91149,0.182298 5.87006,0.0506 6.80855,-0.184015 0.50113,-0.125283 1.03062,-0.331298 1.47212,-0.552045 0.14471,-0.07236 0.65145,-0.28343 0.73606,-0.36803 0.0867,-0.08675 -0.0867,-0.281284 0,-0.36803 0.0613,-0.06134 0.4907,-0.122677 0.55204,-0.184015 0.0867,-0.08674 -0.0867,-0.281284 0,-0.36803 0.0867,-0.08674 0.28129,0.08675 0.36803,0 0.0434,-0.04337 -0.0549,-0.156583 0,-0.184015 1.04275,0 0.0613,0.122676 0.36803,-0.184013 0.0868,-0.08675 0.28128,0.08674 0.36803,0 0.0434,-0.04337 -0.0434,-0.140644 0,-0.184015 0.092,-0.09201 0.46004,0.09201 0.55205,0 0.0267,-0.02673 0.18401,-0.96093 0.18401,-0.552045 0,0.245353 0.17349,0.562568 0,0.73606 -0.0434,0.04337 -0.15658,-0.05486 -0.18401,0 -0.14739,0.294767 0.0348,0.534652 -0.36803,0.736058 -0.0549,0.02743 -0.15659,-0.05486 -0.18402,0 -0.0549,0.109725 0.0388,0.251648 0,0.36803 -0.12329,0.369879 -0.42875,-0.0019 -0.55204,0.36803 -0.0388,0.116382 0.0388,0.251648 0,0.36803 -0.19869,0.596053 -1.25209,0.884063 -1.65614,1.288103 -0.11272,0.112723 -0.15665,0.481586 -0.36803,0.552045 -0.11638,0.03879 -0.24773,-0.02405 -0.36803,0 -0.43064,0.08613 -1.9428,0.695381 -2.39219,0.920075 -0.12268,0.06134 -0.0613,0.306692 -0.18402,0.36803 -0.31668,0.158343 -0.9592,0.01955 -1.2881,0.184013 -0.73323,0.36662 -7.9e-4,0.368234 -0.73606,0.552045 -0.66124,0.165309 -1.37372,0.20542 -2.02416,0.36803 -0.33306,-0.110911 -0.34224,0.298093 -0.55205,0.36803 -0.38092,0.126976 -1.10422,-0.04599 -1.47211,0 -1.05881,0.13235 -2.0486,0.184015 -3.12826,0.184015 -0.66374,0 -2.0801,0.226706 -2.76022,0 -0.26024,-0.08675 -0.46994,-0.301498 -0.73606,-0.36803 -0.26925,-0.06731 -0.91641,0.0037 -1.10409,-0.184015 -0.0434,-0.04337 0.0549,-0.156583 0,-0.184015 -0.16459,-0.08229 -0.42193,0.13012 -0.55204,0 -0.0434,-0.04337 0.0274,-0.129151 0,-0.184015 -0.20344,-0.406866 -0.11421,-0.0571 -0.36803,-0.184015 -0.76583,-0.382913 0.19671,0.0127 -0.18402,-0.36803 -0.38073,-0.380733 0.0149,0.581813 -0.36803,-0.184013 -0.0274,-0.05486 0.0434,-0.140644 0,-0.184015 -0.0867,-0.08675 -0.2583,0.05486 -0.36803,0 -0.4207,-0.210349 -0.56729,-0.651676 -0.73606,-0.73606 -0.0549,-0.02743 -0.14064,0.04337 -0.18401,0 -0.0434,-0.04337 0.0434,-0.140642 0,-0.184015 -0.0434,-0.04337 -0.14064,0.04337 -0.18402,0 -0.0717,-0.0717 0,-0.623766 0,-0.73606"
       id="path6" />
    <path
       style="fill:#000000;fill-opacity:1;stroke:#000000;stroke-width:0.765"
       d="m 96.239776,56.67658 c 0,0.245351 -0.245353,0.736058 0,0.736058 0.245353,0 0.109725,-0.955508 0,-0.736058 -0.218893,0.437785 -0.149138,1.218348 -0.36803,1.656133 -0.02394,0.04791 -0.327864,0.224182 -0.184015,0.36803 0.112723,0.112723 0.481586,0.156655 0.552045,0.36803 0.03879,0.11638 -0.08675,0.281284 0,0.368028 0.162822,0.162822 0.59958,-0.04141 0.73606,0.36803 0.03879,0.116382 -0.08675,0.281287 0,0.36803 0.08674,0.08675 0.281284,-0.08674 0.36803,0 0.526638,0.526637 -0.459136,0.230471 0.184013,0.552045 0.180168,0.09008 0.357719,0.270868 0.552045,0.36803 0.195043,0.09752 0.857448,0.101802 1.10409,0.184016 0.292301,0.09743 0.634886,0.40945 0.920076,0.552045 0.37428,0.187142 0.73606,0.451228 0.73606,0.368027 0,-0.137155 -0.29195,-0.06989 -0.36803,-0.184015 -0.42729,-0.640929 -0.21676,-0.80155 -0.36803,-1.104088 -0.0274,-0.05486 -0.140645,0.04337 -0.184018,0 -0.04337,-0.04337 0.04337,-0.140641 0,-0.184015 -0.09698,-0.09698 -0.291947,-0.06989 -0.368028,-0.184015 -0.06412,-0.09618 0.09599,-0.640069 0,-0.73606 -0.04337,-0.04337 -0.140642,0.04337 -0.184015,0 -0.08429,-0.08429 -0.03871,-0.663406 -0.184015,-0.736058 -0.109725,-0.05486 -0.258305,0.05486 -0.36803,0 -0.170775,-0.08539 -0.0572,-0.425227 -0.184015,-0.552045 -0.04337,-0.04337 -0.140642,0.04337 -0.184015,0 -0.04337,-0.04337 0.04337,-0.140642 0,-0.184015 -0.04337,-0.04337 -0.140642,0.04337 -0.184015,0 -0.04337,-0.04337 0.04337,-0.140642 0,-0.184015 -0.04337,-0.04337 -0.129151,0.02743 -0.184015,0 -0.280988,-0.140494 -0.477565,-0.68286 -0.552045,-0.73606 -0.40241,-0.287435 -0.858735,-0.490707 -1.288103,-0.736058 z"
       id="path7" />
    <path
       style="fill:#000000;fill-opacity:1;stroke:#000000;stroke-width:0.765"
       d="m 99.920072,64.957247 c -0.490704,0.06134 -1.002969,0.02763 -1.472118,0.184016 -0.209809,0.06994 -0.17022,0.453141 -0.36803,0.552045 -0.17349,0.08675 -0.385718,0.08422 -0.552045,0.184015 -0.148768,0.08926 -0.212855,0.290441 -0.368028,0.36803 -0.226205,0.113101 -0.509857,0.07091 -0.73606,0.184015 -0.440724,0.220361 -0.685562,0.641054 -1.10409,0.920073 -0.11412,0.07608 -0.271045,0.08703 -0.36803,0.184015 -0.08674,0.08675 0.05486,0.258304 0,0.36803 -0.06134,0.122676 -0.30669,0.306692 -0.184013,0.36803 0.109723,0.05486 0.258302,-0.05486 0.368028,0 0.05486,0.02743 -0.03402,0.132979 0,0.184015 0.03396,0.05094 0.728723,1.096753 0.73606,1.104088 0.04337,0.04337 0.140642,-0.04337 0.184015,0 0.04337,0.04337 -0.04337,0.140644 0,0.184015 0.01841,0.01839 0.533643,0.01839 0.552045,0 0.106945,-0.106945 0.106693,-0.581414 0.184015,-0.736058 0.220417,-0.440833 0.642057,-0.87108 0.920073,-1.288105 0.144973,-0.217459 0.441587,-0.257572 0.552045,-0.36803 0.04337,-0.04337 -0.02743,-0.129151 0,-0.184015 0.382913,-0.765826 -0.0127,0.19672 0.36803,-0.184013 0.04337,-0.04337 -0.04337,-0.140644 0,-0.184015 0.04337,-0.04337 0.129151,0.02743 0.184015,0 0.407636,-0.203819 1.043683,-1.699202 1.104088,-1.840151 z"
       id="path8" />
    <path
       style="fill:#000000;fill-opacity:1;stroke:#000000;stroke-width:0.765"
       d="m 49.131971,53.548327 c -0.334256,3.391368 -0.184015,6.881008 -0.184015,10.304833 0,1.1762 -0.166865,2.512242 0,3.680296 0.03577,0.250362 0.152646,0.485108 0.184015,0.73606 0.04565,0.365188 -0.08926,0.747048 0,1.10409 -0.110914,0.333055 0.298093,0.342233 0.368027,0.552043 0.07759,0.232764 -0.04812,0.495472 0,0.73606 0.01273,0.06359 0.142055,0.97821 0.184015,1.10409 0.02743,0.08229 0.156586,0.101719 0.184015,0.184015 0.03839,0.11515 0.125804,1.714344 0,1.840148 -0.259241,0.259242 -0.03819,-0.348935 -0.36803,-0.184015 -0.137321,0.06866 -0.675701,0.307671 -0.736057,0.36803 -0.04337,0.04337 0.04337,0.140642 0,0.184016 -0.401331,0.40133 -0.700347,-0.480619 -0.736061,-0.552046 -0.601284,-1.202571 -1.656132,-2.294808 -1.656132,-3.680298 0,-0.934442 -0.188799,-1.680046 -0.368031,-2.576208 -0.117959,-0.589791 0.117957,-1.250358 0,-1.840148 -0.0269,-0.134493 -0.161467,-0.232738 -0.184015,-0.36803 -0.07628,-0.457669 0.113216,-1.019257 0,-1.472118 -0.242382,-0.969529 -0.184015,-1.939147 -0.184015,-2.944239 0,-0.500546 -0.120724,-1.173236 0,-1.656133 0.06653,-0.266123 0.322932,-0.465478 0.36803,-0.73606 0.149781,-0.898686 -0.196,-0.528074 0.184015,-1.288105 0.153022,-0.306046 0.434343,-0.566971 0.552046,-0.920073 0.09947,-0.298429 0.09044,-1.194527 0.184012,-1.288105 0.04337,-0.04337 0.129154,0.02743 0.184015,0 0.352378,-0.176189 0.184015,-0.605502 0.184015,-0.920073"
       id="path9" />
    <path
       style="fill:#000000;fill-opacity:1;stroke:#000000;stroke-width:0.765"
       d="m 44.899627,52.260222 c -0.90239,2.148194 -1.020823,4.552071 -1.472118,6.808551 -0.03804,0.190201 -0.145976,0.361842 -0.184015,0.552043 -0.08157,0.407874 0.100841,0.884738 0,1.288105 -0.107646,0.430586 -0.292076,0.832377 -0.36803,1.288103 -0.03025,0.181512 0.06834,0.381193 0,0.552045 -0.06443,0.161084 -0.303596,0.20695 -0.36803,0.36803 -0.06834,0.170855 0.04463,0.373523 0,0.552046 -0.02103,0.08416 -0.167002,0.09895 -0.184015,0.184015 -0.1065,0.532508 0.0769,1.11787 0,1.656133 -0.162084,1.134596 -0.26829,2.055092 0,3.128253 0.05552,0.222075 -0.126169,0.730819 0,0.920073 0.09624,0.144354 0.303599,0.206949 0.36803,0.36803 0.05126,0.128156 -0.124534,0.979556 0,1.10409 0.198221,0.198221 0.184015,-0.192611 0.184015,0.552045 0,0.122677 -0.08675,-0.281284 0,-0.36803 0.01839,-0.01841 0.533643,-0.01841 0.552045,0 0.09125,0.09125 0,0.790808 0,0.920073 0,0.207745 0.09752,1.223089 0,1.288105 -0.261956,0.174639 -1.126434,0.02236 -1.288105,0.184015 -0.04337,0.04337 0.05486,0.156583 0,0.184015 -0.464849,0.232424 -1.188514,-0.05409 -1.288103,-0.552045 -0.285583,-1.427916 -0.184015,-2.943778 -0.184015,-4.416356 0,-2.208178 0,-4.416356 0,-6.624537 0,-0.913577 -0.237535,-4.071784 0,-4.784386 0.02743,-0.08229 0.145222,-0.106426 0.184015,-0.184015 0.09887,-0.197736 -0.07097,-0.523155 0,-0.736058 0.1417,-0.4251 0.281369,-0.854797 0.36803,-1.288105 0.179004,-0.895027 0.08415,-2.108314 0.736058,-2.760223"
       id="path10" />
    <path
       style="fill:#000000;fill-opacity:1;stroke:#000000;stroke-width:0.765"
       d="m 38.091078,52.260222 c -0.122677,0.36803 -0.322702,0.718809 -0.36803,1.10409 -0.07884,0.6701 0,1.349441 0,2.024163 -0.06134,0.797399 -0.08058,1.599157 -0.184015,2.392193 -0.217263,1.66569 -0.552046,3.289771 -0.552046,4.968401 0,1.070748 -0.05341,2.083417 -0.184015,3.128254 -0.285242,2.281938 -0.06248,-0.545177 -0.368027,1.288103 -0.183573,1.101436 -0.102926,2.251847 -0.36803,3.312268 -0.08065,0.322596 0.243694,1.780471 0,2.024163 -0.137158,0.137157 -0.36803,-0.122677 -0.552045,-0.184015 -0.276022,-0.09201 -0.184015,0.184015 -0.552046,0 -0.05486,-0.02743 0.04337,-0.140642 0,-0.184015 -0.204086,-0.204086 -0.328239,0.959866 -0.73606,0.552045 -0.17349,-0.17349 0.0347,-0.493173 0,-0.736058 -0.111268,-0.778883 -0.35995,-1.00775 -0.552042,-1.84015 -0.60148,-2.606405 -0.552046,-5.248759 -0.552046,-7.91264 0,-0.765267 -0.125563,-1.638816 0,-2.392193 0.08855,-0.531328 0.446416,-0.94397 0.552046,-1.472118 0.109474,-0.547372 0.06838,-1.340739 0.36803,-1.840148 0.08926,-0.148767 0.303596,-0.206949 0.368027,-0.36803 0.06834,-0.170855 -0.04463,-0.373525 0,-0.552045 0.02104,-0.08416 0.145222,-0.106426 0.184015,-0.184015 0.02743,-0.05486 -0.04337,-0.140642 0,-0.184015 0.04337,-0.04337 0.156586,0.05486 0.184015,0 0.209908,-0.419812 -0.05565,-0.992788 0.184015,-1.472118"
       id="path11" />
    <path
       style="fill:#000000;fill-opacity:1;stroke:#000000;stroke-width:0.765"
       d="m 30.914498,54.100372 c -0.138377,0.791028 -0.220527,1.294826 -0.552045,2.024163 -1.039937,2.28786 -2.081834,4.693708 -2.392193,7.17658 -0.165338,1.322707 0.21893,2.734741 0,4.048326 -0.12514,0.750839 -0.184015,1.433988 -0.184015,2.208178 0,0.293314 0.198157,1.641993 0,1.84015 -0.128468,0.128466 -0.681408,-0.02005 -0.73606,-0.184015 -0.03879,-0.116382 0.05486,-0.258305 0,-0.36803 -0.0578,-0.115602 -0.581462,-0.842777 -0.736059,-0.920075 -0.153208,-0.0766 -0.619337,0.116723 -0.736059,0 -0.118777,-0.118777 -0.184015,-2.665918 -0.184015,-3.128251 0,-1.04616 -0.235072,-3.476069 0,-4.416359 0.08357,-0.334288 0.474473,-0.716232 0.552044,-1.104087 0.07218,-0.360884 -0.07218,-0.743207 0,-1.104091 0.109588,-0.547936 0.557176,-1.119484 0.736059,-1.656133 0.0713,-0.213892 0.08658,-0.541192 0.184015,-0.73606 0.0388,-0.07759 0.162978,-0.09986 0.184015,-0.184015 0.04463,-0.17852 -0.05819,-0.377473 0,-0.552045 0.01389,-0.04167 0.184015,0.0977 0.184015,-0.368028"
       id="path12" />
    <path
       style="fill:#000000;fill-opacity:1;stroke:#000000;stroke-width:0.765"
       d="m 23.185873,59.252789 c -0.989605,2.361141 -0.253013,4.945361 -0.736059,7.360594 -0.0801,0.400524 0.128367,0.903002 0,1.288103 -0.02743,0.08229 -0.156584,0.101721 -0.184015,0.184015 -0.07759,0.232762 0.109725,0.516609 0,0.73606 -0.157888,0.315775 -0.51372,-0.348869 -0.552045,-0.36803 -0.329339,-0.164669 -0.01038,0.638863 -0.552044,0.36803 -0.48045,-0.240226 -0.788914,-0.08026 -0.920075,-0.73606 -0.08313,-0.415631 0,-1.047655 0,-1.472118 0,-1.514062 0.0055,-3.150433 0.36803,-4.600374 0.113298,-0.453189 0.438747,-0.834911 0.552045,-1.288103 0.04463,-0.178519 -0.04463,-0.373523 0,-0.552045 0.06653,-0.266123 0.281284,-0.475821 0.36803,-0.73606"
       id="path13" />
    <path
       style="fill:#000000;fill-opacity:1;stroke:#000000;stroke-width:0.765"
       d="m 60.908921,52.996282 c -1.559922,0.557871 -2.798688,2.032471 -3.128253,3.680298 -0.08257,0.412854 0.08257,0.87525 0,1.288103 -0.0269,0.134493 -0.157115,0.233537 -0.184015,0.36803 -0.223068,1.115338 0,2.539815 0,3.680296 0,2.118228 -0.02795,3.908579 0.36803,5.888477 0.07639,0.381958 0.442796,0.776343 0.552045,1.10409 0.145765,0.43729 -0.217831,0.334211 0.184015,0.736058 0.04337,0.04337 0.122677,0 0.184015,0 0.06134,0.06134 0.135896,0.111839 0.184015,0.184015 0.535795,0.803693 -0.08156,-0.06065 0.184016,0.73606 0.150921,0.452763 0.646586,0.693859 0.920072,1.10409 0.163896,0.245841 0.471776,0.863283 0.552045,1.104088 0.03879,0.116382 -0.05486,0.258305 0,0.36803 0.258244,0.516488 1.101082,1.104091 1.656133,1.104091 0.429369,0 0.858737,0 1.288106,0 0.184015,0 0.36803,0 0.552045,0 0.06134,0 0.184015,0.06134 0.184015,0 0,-0.06134 -0.156586,0.05486 -0.184015,0 -0.113104,-0.226206 -0.09009,-0.501246 -0.184015,-0.736061 -0.09395,-0.23486 -0.402188,-0.218172 -0.552045,-0.36803 -0.718162,-0.718161 0.04259,-0.09882 -0.184015,-0.552045 -0.0989,-0.19781 -0.269124,-0.354235 -0.368031,-0.552045 -0.22004,-0.440082 -0.257881,-0.847508 -0.36803,-1.288103 -0.06653,-0.266123 -0.301498,-0.469937 -0.36803,-0.73606 -0.02975,-0.119012 0.05486,-0.258305 0,-0.36803 -0.184015,-0.368028 -0.368027,-0.276022 -0.552042,-0.552043 -0.304454,-0.456679 -0.137226,-0.488611 -0.36803,-1.10409 -0.314828,-0.839542 -0.926037,-1.685941 -1.104091,-2.576208 -0.05865,-0.293249 -0.05038,-0.652812 -0.184015,-0.920076 -0.233749,-0.467497 -0.219929,0.188455 -0.36803,-0.552042 -0.128897,-0.644488 -0.142727,-3.590068 0,-4.232344 0.166632,-0.749837 0.407789,-1.486887 0.552045,-2.208178 0.03609,-0.180441 -0.06834,-0.381191 0,-0.552045 0.36803,-0.920073 0.276024,0 0.552045,-0.552043 0.05486,-0.109725 -0.08675,-0.281286 0,-0.36803 0.04337,-0.04337 0.140642,0.04337 0.184015,0 0.08675,-0.08675 -0.08675,-0.281284 0,-0.36803 0.172839,-0.172839 0.63876,-0.260144 0.736061,-0.552045 0.03879,-0.11638 -0.05486,-0.258305 0,-0.36803 0.02743,-0.05486 0.132977,0.03402 0.184015,0 0.144351,-0.09624 0.271793,-0.223676 0.368027,-0.36803 0.08532,-0.127971 0.112707,-0.409427 0.184015,-0.552043 0.184015,-0.36803 0.73606,-0.552045 0.920076,-0.920075 0.05555,-0.111104 -0.08506,-0.466982 0,-0.552045 0.112831,-0.112832 0.36803,-0.126088 0.36803,-0.552046"
       id="path14" />
    <path
       style="fill:#000000;fill-opacity:1;stroke:#000000;stroke-width:0.765"
       d="m 82.990705,58.332713 c -3.288051,-1.972831 0.574717,0.130233 -1.472118,-0.552045 -0.209809,-0.06994 -0.348768,-0.280911 -0.552045,-0.36803 -0.898496,-0.385069 -2.166588,-0.598678 -3.128254,-0.736058 -0.659561,-0.09422 -1.367289,0.109477 -2.024163,0 -1.408586,-0.234764 -2.841976,-0.08996 -4.232341,-0.36803 -0.471916,-0.09438 -0.997127,0.07917 -1.47212,0 -0.645253,-0.107542 -3.212582,-0.467717 -3.680296,0 -0.127037,0.127037 0.0095,1.637073 -0.184015,2.024163 -0.07759,0.155176 -0.303596,0.206947 -0.36803,0.36803 -0.06834,0.170852 0.03609,0.371602 0,0.552046 -0.101195,0.505978 -0.818203,1.43266 -0.920076,1.840147 -0.224753,0.899015 -0.03359,1.857693 -0.184015,2.760224 -0.118861,0.713176 -0.416763,2.798032 -0.184015,3.496281 0.444299,1.332896 -0.05305,-0.290119 0.36803,0.552045 0.05486,0.109725 -0.08674,0.281284 0,0.36803 0.09699,0.09699 0.29195,0.0699 0.368031,0.184015 0.06805,0.102074 -0.03879,0.251648 0,0.36803 0.06722,0.20166 0.432728,0.373071 0.552045,0.552045 0.152162,0.22824 0.174061,0.542089 0.36803,0.736058 0.04337,0.04337 0.156583,-0.05486 0.184015,0 0.05486,0.109725 -0.05486,0.258305 0,0.36803 0.143624,0.287248 2.826946,0.217493 3.128251,0.184015 0.251359,-0.02793 0.485698,-0.148249 0.73606,-0.184015 0.791538,-0.113078 1.61581,0.01008 2.392193,-0.184015 0.133062,-0.03327 0.233537,-0.157115 0.36803,-0.184015 0.441047,-0.08821 1.05291,-0.01632 1.472121,-0.184015 0.523554,-0.209421 1.077621,-0.620356 1.656133,-0.736058 0.240588,-0.04812 0.516609,0.109726 0.73606,0 0.197808,-0.09891 0.39566,-0.211648 0.552042,-0.36803 0.04337,-0.04337 -0.05486,-0.156583 0,-0.184015 0.16459,-0.08229 0.387459,0.08229 0.552045,0 0.155176,-0.07759 0.212855,-0.290444 0.368031,-0.36803 0.05486,-0.02743 0.140642,0.04337 0.184015,0 0.04337,-0.04337 -0.04337,-0.140642 0,-0.184015 0.331052,-0.331052 0.54529,-0.09032 0.920075,-0.184015 0.564338,-0.141084 0.947216,-0.561092 1.472118,-0.73606 0.25736,-0.08579 1.418971,-0.314881 1.472118,-0.368028 0.08675,-0.08675 0,-0.245353 0,-0.36803"
       id="path15" />
    <path
       style="fill:#000000;fill-opacity:1;stroke:#000000;stroke-width:0.765"
       d="m 78.574349,54.100372 c 0.03877,-1.719866 -0.953982,-3.045963 -1.472118,-4.600374 -0.08675,-0.260236 -0.301501,-0.469934 -0.36803,-0.736057 -0.05951,-0.238027 0.05951,-0.498033 0,-0.736061 -0.156409,-0.625631 -0.628285,-1.19349 -0.736061,-1.840148 -0.03025,-0.181512 0.08229,-0.387458 0,-0.552045 -0.06134,-0.122676 -0.306691,-0.06134 -0.36803,-0.184015 -0.166856,-0.333716 -0.01714,-0.770374 -0.184015,-1.10409 -0.587917,-1.175835 -1.423709,-2.295374 -2.024163,-3.496281 -0.147722,-0.295444 -0.207613,-0.631325 -0.36803,-0.920075 -0.132675,-0.616731 -0.823515,-0.797103 -1.104088,-1.288103 -0.125476,-0.219583 -0.05854,-0.516477 -0.184015,-0.73606 -0.129114,-0.225949 -0.400785,-0.340281 -0.552045,-0.552045 -0.15944,-0.223219 -0.196667,-0.521857 -0.36803,-0.736058 -0.08568,-0.107103 -0.245353,-0.122677 -0.36803,-0.184015 -0.122677,-0.122677 -0.263935,-0.229238 -0.36803,-0.36803 -0.80354,-1.071388 -1.907612,-1.853176 -2.944238,-2.760224 -0.79597,-0.696475 -1.539399,-1.384569 -2.392194,-2.024163 -1.111567,-0.833678 0.05667,0.119706 -1.288102,-0.73606 -1.094174,-0.696293 -2.122165,-1.51412 -3.312269,-2.024163 -0.852064,-0.36517 -1.764448,-0.640228 -2.576208,-1.10409 -0.266282,-0.152162 -0.461746,-0.414888 -0.736058,-0.552045 -0.226205,-0.113102 -0.499258,-0.09521 -0.73606,-0.184015 -1.07261,-0.402227 -2.058458,-1.070945 -3.128253,-1.472118 -0.377804,-0.141676 -1.306367,-0.280588 -1.656133,-0.36803 -0.320456,-0.08011 -0.594252,-0.313726 -0.920075,-0.36803 -0.595043,-0.09917 -1.243637,-0.06471 -1.840148,-0.184014 -0.996575,-0.199315 -2.555629,-1.10409 -3.496284,-1.10409 -0.06134,0 0,0.122677 0,0.184015 0,0.949889 0.104754,1.65474 0.36803,2.576208 0.09074,0.317608 0.30325,0.596173 0.36803,0.920074 0.03609,0.180443 -0.06834,0.381193 0,0.552045 0.06443,0.161083 0.278771,0.219263 0.36803,0.36803 0.199592,0.332653 0.194538,0.757108 0.368031,1.10409 0.252375,0.504754 0.667694,0.967362 0.920072,1.472118 0.20129,0.40258 0.443384,1.265896 0.73606,1.656133 0.208191,0.277588 0.537078,0.451803 0.736061,0.73606 0.774456,1.106369 0.241615,0.977675 1.104087,1.840148 0.216864,0.216866 0.519198,0.335182 0.736061,0.552045 0.156382,0.156382 0.211648,0.395664 0.36803,0.552046 0.386524,0.386524 0.888463,0.704447 1.288103,1.104087 0.544597,0.544598 1.232204,1.200177 1.84015,1.656136 0.219448,0.164587 0.512839,0.208587 0.736058,0.36803 1.234146,0.881531 -0.152384,0.211127 1.10409,1.288103 0.208275,0.178522 0.51661,0.203443 0.73606,0.36803 0.277585,0.20819 0.47261,0.510246 0.736058,0.73606 0.335833,0.287856 0.764294,0.452895 1.10409,0.736058 0.662938,0.55245 1.19076,1.271934 1.840148,1.84015 0.154774,0.135425 1.675588,1.378085 1.840148,1.472118 0.219583,0.125476 0.519197,0.0539 0.73606,0.184015 0.11761,0.07057 0.08703,0.271045 0.184016,0.36803 0.376454,0.376455 0.855125,0.447408 1.288102,0.736061 0.520137,0.346755 0.938104,0.967692 1.472121,1.288102 0.166327,0.0998 0.385717,0.08422 0.552045,0.184015 0.148767,0.08926 0.229235,0.263936 0.36803,0.368031 0.72191,0.541432 1.492038,1.083222 2.208178,1.656132 0.582213,0.465773 1.060993,1.025764 1.656133,1.472121 0.113602,0.0852 0.417589,0.116787 0.552045,0.184015 0.220816,0.110408 0.331227,0.441635 0.552045,0.552043 0.145315,0.07266 0.396854,-0.05173 0.552043,0 1.332897,0.444298 -0.290118,-0.05305 0.552045,0.36803 0.111104,0.05555 0.466982,-0.08506 0.552045,0 0.245354,0.245353 -0.306691,0.184015 0.184015,0.184015"
       id="path16" />
    <path
       style="fill:#000000;fill-opacity:1;stroke:#000000;stroke-width:0.765"
       d="m 80.598512,70.845724 c -0.102479,1.747099 -1.124866,3.469571 -2.024163,4.968401 -0.254432,0.424053 -0.386377,0.938422 -0.736061,1.288106 -0.156382,0.156382 -0.410461,0.19813 -0.552045,0.368027 -0.33007,0.27458 -0.295,0.782786 -0.552042,1.104091 -1.446237,1.807792 0.156199,-0.655289 -1.104091,0.920075 -0.121171,0.151463 -0.06284,0.400579 -0.184015,0.552043 -0.138155,0.172696 -0.39566,0.211648 -0.552045,0.36803 -0.193969,0.193968 -0.203441,0.516609 -0.368027,0.73606 -0.35677,0.475692 -0.886497,0.702479 -1.288106,1.104088 -0.416173,0.416173 -0.687916,1.055946 -1.10409,1.47212 -0.156382,0.156382 -0.395661,0.211648 -0.552043,0.36803 -2.338609,2.338607 0.857269,-0.489238 -0.920075,1.288103 -0.216863,0.216863 -0.519194,0.335182 -0.73606,0.552045 -0.956429,0.956432 0.17444,0.191675 -0.736058,0.920075 -0.659135,0.527307 -0.65487,0.745329 -1.288105,1.288103 -0.400622,0.343392 -0.950309,0.514721 -1.288103,0.920076 -0.175612,0.210732 -0.203443,0.516609 -0.36803,0.736057 -0.508775,0.678368 -0.851048,0.770546 -1.472121,1.288106 -0.335113,0.279262 -0.408193,0.674176 -0.736057,0.920075 -0.416751,0.31256 -1.012542,0.690285 -1.472121,0.920072 -0.17349,0.08675 -0.390652,0.07642 -0.552045,0.184016 -0.05103,0.03402 0.05486,0.156583 0,0.184015 -0.196281,0.09814 -0.539776,-0.09814 -0.736057,0 -0.07759,0.03879 -0.122677,0.122676 -0.184016,0.184015 -0.429368,0.06134 -0.872669,0.05938 -1.288105,0.184015 -0.211831,0.06355 -0.339394,0.307274 -0.552042,0.36803 -0.572554,0.163586 -1.411857,0.08196 -2.024166,0.184015 -1.706563,0.284427 0.254153,0.03416 -1.472118,0.552045 -1.312429,0.393727 -0.883563,0.03683 -2.208178,0.184013 -0.615408,0.06838 -1.227974,0.450016 -1.840148,0.552045 -0.181512,0.03025 -0.371605,-0.03609 -0.552045,0 -1.776632,0.355327 1.508797,0.02103 -0.920075,0.36803 -2.307583,0.329655 0.861168,-0.399307 -1.472118,0.184015 -0.905817,0.226454 -1.865741,0.308094 -2.760224,0.552045 -0.318677,0.08691 -0.596172,0.30325 -0.920075,0.36803 -0.694227,0.138846 -1.501135,0.06617 -2.208178,0.184015 -0.898729,0.149786 -1.329965,0.552043 -2.392193,0.552043 -0.291603,0 -0.934773,0.169317 -1.10409,0 -0.248926,-0.248926 0.07391,-1.067882 0.184015,-1.288103 0.504235,-1.00847 1.202637,-1.803953 1.84015,-2.760223 0.07608,-0.11412 0.122677,-0.245354 0.184015,-0.36803 0.184013,-0.306692 0.344157,-0.629034 0.552043,-0.920076 0.45525,-0.637347 0.311843,-0.127825 0.920075,-0.736057 0.156382,-0.156382 0.195334,-0.413888 0.36803,-0.552045 0.151464,-0.121172 0.385718,-0.08422 0.552045,-0.184016 0.415904,-0.249544 0.453136,-0.549282 0.920073,-0.73606 0.496038,-0.198413 1.196126,-0.32204 1.656136,-0.552042 0.155172,-0.07759 0.206946,-0.303599 0.368027,-0.36803 0.170855,-0.06834 0.36988,0.02601 0.552045,0 0.773909,-0.110559 1.165207,-0.466082 1.840148,-0.736061 0.431271,-0.172508 1.013209,-0.138573 1.472121,-0.36803 0.19781,-0.0989 0.354234,-0.269123 0.552045,-0.36803 0.572291,-0.286144 1.26248,-0.304472 1.840148,-0.552042 0.203277,-0.08712 0.344966,-0.290378 0.552045,-0.368031 0.292851,-0.10982 0.623358,-0.08511 0.920073,-0.184015 0.796258,-0.265419 1.566751,-0.713713 2.392193,-0.920075 0.178522,-0.04463 0.377473,0.05819 0.552045,0 0.209809,-0.06994 0.362402,-0.254243 0.552045,-0.36803 0.283245,-0.169947 0.636831,-0.198083 0.920075,-0.36803 0.148768,-0.08926 0.212855,-0.290441 0.368028,-0.368028 0.226205,-0.113104 0.504955,-0.0813 0.73606,-0.184015 1.035966,-0.46043 2.157214,-1.07351 3.128254,-1.656135 0.730644,-0.438386 1.426686,-1.137193 2.208178,-1.472118 0.232455,-0.09962 0.516477,-0.05854 0.73606,-0.184015 0.540173,-0.308671 1.30117,-1.603507 1.656133,-1.840148 0.210428,-0.140287 0.503605,-0.08439 0.73606,-0.184015 0.454541,-0.194805 0.864052,-0.481629 1.288103,-0.73606 0.285004,-0.171001 0.440449,-0.588254 0.73606,-0.736061 0.524264,-0.26213 1.035177,-0.483131 1.472118,-0.920072 0.156384,-0.156385 0.211648,-0.395663 0.36803,-0.552045 0.137157,-0.137158 0.414888,-0.04686 0.552045,-0.184016 0.04337,-0.04337 0,-0.122676 0,-0.184015 0.06134,-0.122676 0.0699,-0.291949 0.184015,-0.36803 0.102074,-0.06805 0.281284,0.08675 0.36803,0 0.04119,-0.04119 0.09355,-0.645594 0.184015,-0.73606 0.115234,-0.115234 0.360588,0.0074 0.552046,-0.184012"
       id="path17" />
    <path
       style="fill:#000000;fill-opacity:1;stroke:#000000;stroke-width:0.765"
       d="m 90.903344,52.996282 c 0.06134,-0.245354 0.429369,-0.674722 0.184016,-0.73606 -0.245354,-0.06134 -0.297117,0.962265 -0.184016,0.73606 0.234374,-0.468747 0.401453,-0.970148 0.552046,-1.472118 0.07504,-0.250142 0.269412,-1.508207 0.36803,-1.656136 0.07608,-0.11412 0.306692,-0.06134 0.36803,-0.184015 0.08229,-0.164586 -0.03609,-0.371602 0,-0.552042 0.01296,-0.06486 0.355055,-0.855216 0.368027,-0.920076 0.02405,-0.120295 -0.05486,-0.258304 0,-0.36803 0.07759,-0.155175 0.278771,-0.219262 0.36803,-0.36803 0.393481,-0.655799 0.525762,-1.55099 0.920076,-2.208178 0.13389,-0.223149 0.389477,-0.348834 0.552045,-0.552045 0.17136,-0.214201 0.174061,-0.542089 0.36803,-0.736058 0.940385,-0.940387 -0.256654,0.77157 0.736058,-0.552045 0.08229,-0.109725 0.06641,-0.297463 0.184015,-0.36803 0.216863,-0.130119 0.525632,-0.04373 0.73606,-0.184015 0.184015,-0.122677 0.195334,-0.413888 0.36803,-0.552045 0.151463,-0.121171 0.378553,-0.09727 0.552045,-0.184015 1.183749,-0.591873 2.284831,-1.281017 3.496284,-1.840148 1.47304,-0.679866 1.31905,-0.605785 2.57621,-0.920075 0.84578,-0.211445 0.0418,-0.184013 0.55204,-0.184013 0.32695,0 1.40092,-0.225629 1.10409,0.368028 -0.26023,0.520464 -0.6707,0.259683 -1.10409,0.36803 -0.56963,0.142409 -0.21232,0.237802 -0.73606,0.552045 -0.26765,0.160591 -1.04749,0.271785 -1.2881,0.36803 -0.24285,0.09714 -0.68901,0.398 -0.92008,0.552045 -0.14435,0.09623 -0.22367,0.271793 -0.36803,0.368028 -0.33637,0.224247 -0.780982,0.309716 -1.104086,0.552045 -0.447976,0.335984 -0.808273,0.816189 -1.288105,1.10409 -0.166328,0.0998 -0.385718,0.08422 -0.552045,0.184015 -0.297535,0.17852 -0.447352,0.543589 -0.736058,0.736058 -0.350419,0.233614 -0.888521,0.469672 -1.288105,0.73606 -0.423696,0.282464 -0.69669,0.798542 -1.104088,1.10409 -0.109725,0.08229 -0.285737,0.07429 -0.36803,0.184016 -0.198192,0.264252 -0.184804,0.645234 -0.36803,0.920072 -0.195077,0.292616 -0.629724,0.601067 -0.73606,0.920075 -0.191871,0.575615 -0.176157,1.264534 -0.368031,1.840148 -0.02743,0.08229 -0.156583,0.101722 -0.184015,0.184016 -0.165298,0.495903 0.126929,1.148429 0,1.656132 -0.101864,0.407469 -0.184015,0.670984 -0.184015,1.104091"
       id="path18" />
    <path
       style="fill:#000000;fill-opacity:1;stroke:#000000;stroke-width:0.765"
       d="m 92.375462,72.133827 c 0.467953,2.053881 1.464869,3.849809 2.392196,5.704461 2.001322,4.002646 -0.581906,-0.872857 1.104088,1.656136 0.107595,0.161391 0.06763,0.39687 0.184015,0.552043 1.095965,1.461285 -0.453446,-1.430462 0.73606,0.552045 0.0998,0.166327 0.06284,0.400582 0.184015,0.552045 0.138155,0.172696 0.395661,0.211648 0.552043,0.36803 0.290954,0.290954 0.629121,0.813133 0.920075,1.104088 0.224129,0.224128 0.411128,0.0862 0.552045,0.36803 0.02743,0.05486 -0.04337,0.140642 0,0.184015 0.193969,0.193969 0.521856,0.196667 0.73606,0.36803 1.788951,1.788951 -0.281511,-0.165129 0.920071,0.73606 0.27759,0.208188 0.44736,0.543587 0.73606,0.736058 0.14498,0.09665 1.67276,1.020395 1.84015,1.10409 0.17349,0.08675 0.38572,0.08422 0.55205,0.184015 0.14876,0.08926 0.22367,0.271793 0.36803,0.36803 0.2161,0.144071 0.38537,0.01736 0.55204,0.184015 0.25644,0.25644 -0.99621,0.184016 -1.10409,0.184016 -0.44245,0 -1.0361,0.07267 -1.47212,0 -1.30779,-0.217967 -0.0229,-0.0172 -0.73606,-0.552046 -0.43988,-0.329909 -1.24274,-0.322664 -1.656131,-0.73606 -0.312181,-0.312182 -1.014663,-1.130316 -1.288105,-1.472118 -0.580829,-0.726035 0.37243,0.0044 -0.552045,-0.920075 -0.156382,-0.156382 -0.395661,-0.211648 -0.552043,-0.36803 -0.09699,-0.09698 -0.08703,-0.271045 -0.184015,-0.36803 -0.09699,-0.09698 -0.271047,-0.08703 -0.36803,-0.184015 -0.09699,-0.09698 -0.101722,-0.258302 -0.184015,-0.368028 -0.307388,-0.40985 -0.820526,-0.678746 -1.10409,-1.10409 -0.290415,-0.435621 -0.09585,-0.463881 -0.552045,-0.920075 -0.233945,-0.233945 -0.795907,-0.363562 -0.920073,-0.736058 -0.03879,-0.116382 0.06805,-0.265957 0,-0.36803 -0.448255,-0.672383 -0.269378,0.197302 -0.552045,-0.36803 -0.837687,-1.675376 0.421023,0.237008 -0.552046,-0.736061 -0.04337,-0.04337 0.04337,-0.140641 0,-0.184015 -0.09698,-0.09698 -0.271044,-0.08703 -0.36803,-0.184015 -0.04337,-0.04337 0.04337,-0.140642 0,-0.184015 -0.04337,-0.04337 -0.140642,0.04337 -0.184015,0 -0.137154,-0.137154 -0.06763,-0.396869 -0.184012,-0.552042 -0.156144,-0.20819 -0.319283,-0.435666 -0.552045,-0.552045 -0.05486,-0.02743 -0.156583,0.05486 -0.184015,0 -0.05486,-0.109726 0.05486,-0.258305 0,-0.368031 -0.07759,-0.155175 -0.271796,-0.223676 -0.36803,-0.36803 -0.06805,-0.102073 0.05486,-0.258304 0,-0.36803 -0.255953,-0.511902 -0.368031,-0.846209 -0.368031,-1.472118"
       id="path19" />
  </g>
</svg>
